<?xml version="1.0" encoding="utf-8"?>
<!-- Generator: Adobe Illustrator 27.5.0, SVG Export Plug-In . SVG Version: 6.00 Build 0)  -->
<svg version="1.1" xmlns="http://www.w3.org/2000/svg" xmlns:xlink="http://www.w3.org/1999/xlink" x="0px" y="0px"
	 viewBox="0 0 500 500" style="enable-background:new 0 0 500 500;" xml:space="preserve">
<g id="Floor">
	<ellipse id="Floor_2_" style="fill:#F5F5F5;" cx="250" cy="350.024" rx="235.608" ry="136.029"/>
</g>
<g id="Shadows">
	<path id="Shadow_10_" style="fill:#E6E6E6;" d="M73.313,403.174l-40.64-23.464c-2.291-1.323-2.291-3.468,0-4.79l236.389-136.479
		c2.291-1.323,6.006-1.323,8.298,0l40.642,23.463c2.291,1.323,2.291,3.468,0,4.79L81.61,403.174
		C79.319,404.497,75.604,404.497,73.313,403.174z"/>
	<path id="Shadow_11_" style="fill:#E6E6E6;" d="M441.546,314.058l-73.524-41.972c-1.199-0.685-3.14-0.68-4.336,0.011l-0.761,0.439
		c-1.196,0.69-1.188,1.796,0.017,2.47l25.051,14.01l-25.632,14.798l-24.759-14.295c-1.196-0.69-3.134-0.69-4.33,0l-0.761,0.439
		c-1.196,0.69-1.196,1.81,0,2.5l74.766,43.162l0.809-0.965l0.404,0.233l29.508-17.005l0.232,0.134l0.432-0.516l0.628-0.362
		l-0.219-0.126L441.546,314.058z"/>
	<path style="fill:#E0E0E0;" d="M218.754,433.81c-6.208,0-12.057-1.425-16.469-4.012c-0.525-0.307-1.011-0.62-1.486-0.954
		l-4.102-2.887l24.005-3.516l1.607-3.359l-5.333-3.127l-22.486,3.285l1.102-3.124c1.026-2.908,3.427-5.501,6.941-7.5
		c4.376-2.488,10.126-3.858,16.19-3.858c2.429,0,4.821,0.219,7.123,0.653l73.022-42.159c-0.745-1.888-0.885-3.866-0.397-5.813
		c0.815-3.261,3.301-6.152,7.188-8.362c4.38-2.49,10.136-3.862,16.208-3.862c6.208,0,12.057,1.425,16.47,4.011
		c0.525,0.308,1.011,0.62,1.486,0.955l4.102,2.887l-24.006,3.516l-1.607,3.358l5.334,3.127l22.484-3.284l-1.102,3.123
		c-1.025,2.908-3.426,5.502-6.941,7.501c-4.375,2.488-10.125,3.858-16.189,3.858c-2.43,0-4.822-0.22-7.124-0.653l-73.022,42.159
		c0.745,1.888,0.884,3.866,0.397,5.813c-0.816,3.261-3.301,6.152-7.187,8.361C230.583,432.438,224.826,433.81,218.754,433.81z"/>
</g>
<g id="Plants_1_">
	<g id="Plants">
		<g id="XMLID_2210_">
			<g id="XMLID_2212_">
				<path id="XMLID_2230_" style="fill:#27DEBF;" d="M62.005,335.309V312.67c0,0-1.158-12.777-10.108-22.465
					c-8.95-9.689-16.967-6.393-19.577-1.795c-2.61,4.598,3.329,13.327,7.121,18.239c4.565,5.913,22.564,33.37,22.564,45.666V335.309
					z"/>
			</g>
			<g id="XMLID_2214_" style="opacity:0.15;">
				<path id="XMLID_2215_" d="M62.005,335.309V312.67c0,0-1.158-12.777-10.108-22.465c-8.95-9.689-16.967-6.393-19.577-1.795
					c-2.61,4.598,3.329,13.327,7.121,18.239c4.565,5.913,22.564,33.37,22.564,45.666V335.309z"/>
			</g>
			<g id="XMLID_2211_">
				<path id="XMLID_2228_" style="fill:#FFFFFF;" d="M62.004,331.732c-0.267,0-0.502-0.193-0.547-0.464
					c-4.083-24.689-22.872-41.633-23.061-41.801c-0.23-0.204-0.25-0.556-0.046-0.785c0.203-0.23,0.555-0.248,0.784-0.047
					c0.192,0.171,19.271,17.364,23.419,42.45c0.05,0.303-0.155,0.589-0.457,0.639C62.065,331.729,62.034,331.732,62.004,331.732z"/>
			</g>
		</g>
		<g id="XMLID_2204_">
			<g id="XMLID_2209_">
				<path id="XMLID_2225_" style="fill:#27DEBF;" d="M65.881,344.932c0,0,0.779-2.366-2.696-2.964
					c-3.475-0.599-4.81-3.491-5.136-8.34c-0.326-4.848-1.79-8.329-6.149-9.044s-7.868,1.479-10.701-0.704
					c-2.833-2.182-10.151-7.457-16.249-5.056c-6.097,2.402-4.098,7.607-0.928,10.984c3.171,3.377,4.091,4.514,1.664,10.004
					c-2.427,5.49-0.66,10.619,4.95,11.902c5.609,1.283,8.744,0.626,8.832,6.782c0.088,6.156,0.937,8.895,4.009,11.305
					c3.072,2.41,12.743,1.325,16.763,2.261c4.019,0.936,5.64,4.521,5.64,4.521V344.932z"/>
			</g>
			<g id="XMLID_2208_">
				<path id="XMLID_2223_" style="fill:#FFFFFF;" d="M65.882,370.284c-0.201,0-0.389-0.127-0.457-0.329
					c-10.211-30.317-33.319-42.562-33.551-42.682c-0.236-0.122-0.329-0.413-0.207-0.65c0.121-0.236,0.412-0.33,0.649-0.207
					c0.236,0.122,23.681,12.528,34.022,43.232c0.085,0.252-0.05,0.525-0.303,0.61C65.984,370.276,65.933,370.284,65.882,370.284z"/>
			</g>
			<g id="XMLID_2207_">
				<path id="XMLID_2221_" style="fill:#FFFFFF;" d="M51.234,343.857c-0.036,0-0.072-0.004-0.108-0.012
					c-6.666-1.523-17.336-0.7-17.443-0.693c-0.268,0.021-0.498-0.176-0.519-0.442c-0.021-0.266,0.177-0.498,0.443-0.519
					c0.443-0.037,10.924-0.843,17.734,0.714c0.26,0.059,0.422,0.317,0.362,0.577C51.653,343.705,51.454,343.857,51.234,343.857z"/>
			</g>
			<g id="XMLID_2206_">
				<path id="XMLID_2219_" style="fill:#FFFFFF;" d="M56.669,358.427c-3.047,0-6.279-0.199-6.483-0.212
					c-0.266-0.017-0.467-0.246-0.451-0.511c0.017-0.266,0.243-0.48,0.511-0.451c0.074,0.004,7.523,0.462,10.428,0.005
					c0.265-0.039,0.51,0.138,0.551,0.401c0.042,0.263-0.138,0.51-0.401,0.552C59.794,358.374,58.257,358.427,56.669,358.427z"/>
			</g>
			<g id="XMLID_2205_">
				<path id="XMLID_2217_" style="fill:#FFFFFF;" d="M48.105,340.295c-0.009,0-0.018,0-0.027-0.001
					c-0.266-0.014-0.469-0.242-0.454-0.508c0.296-5.347,2.07-9.959,2.146-10.153c0.097-0.248,0.377-0.373,0.624-0.274
					c0.248,0.096,0.371,0.376,0.275,0.624c-0.018,0.046-1.794,4.667-2.082,9.855C48.571,340.096,48.358,340.295,48.105,340.295z"/>
			</g>
		</g>
	</g>
</g>
<g id="Clouds">
	<g id="XMLID_2285_">
		<g id="XMLID_2138_">
			<path id="XMLID_2141_" style="fill:#EBEBEB;" d="M137.036,75.722l-6.465,3.733c0.032-0.289,0.054-0.575,0.054-0.856v-1.873
				c0-3.333-2.34-4.684-5.227-3.017c-1.169,0.675-2.244,1.744-3.115,2.995c-0.473-4.191-3.761-5.752-7.755-3.446
				c-4.318,2.493-7.819,8.557-7.819,13.543v2.802c0,1.292,0.239,2.379,0.662,3.246l-5.37,3.1c-1.601,0.925-2.899,3.173-2.899,5.021
				s1.298,2.598,2.899,1.674l35.034-20.227c1.601-0.924,2.899-3.173,2.899-5.021C139.935,75.547,138.637,74.797,137.036,75.722z"/>
		</g>
		<g id="XMLID_2136_">
			<path id="XMLID_2137_" style="fill:#EBEBEB;" d="M94.299,58.549l-3.566,1.372v-7.856c0-6.228-4.968-7.721-10.361-4.607l0,0
				c-5.394,3.114-9.766,10.687-9.766,16.915v1.141c-1.224-0.488-2.804-0.299-4.532,0.699l0,0c-3.881,2.241-7.028,7.691-7.028,12.172
				v0.518l-4.972,2.871c-2.556,1.476-4.628,5.065-4.628,8.016c0,2.951,2.072,4.148,4.628,2.672l40.226-23.224
				c2.556-1.476,4.628-5.064,4.628-8.016C98.928,58.27,96.855,57.074,94.299,58.549z"/>
		</g>
	</g>
</g>
<g id="Device">
	<g id="Device_1_">
		<g id="XMLID_421_">
			<path id="XMLID_445_" style="fill:#27DEBF;" d="M219.394,356.707l34.938-20.201c3.601-2.079,5.401-4.804,5.402-7.529
				c0-2.726,0.015-4.86,0.015-4.86l-36.249-20.44c-1.921-1.109-3.477-3.806-3.477-6.024v-37.269l-61.023,35.262l-0.002,37.268
				c0,2.218,1.557,4.915,3.478,6.024l30.836,17.768C200.513,360.866,212.191,360.865,219.394,356.707z"/>
			<path id="XMLID_1622_" style="opacity:0.4;" d="M219.394,356.707l34.938-20.201c3.601-2.079,5.401-4.804,5.402-7.529
				c0-2.726,0.015-4.86,0.015-4.86l-36.249-20.44c-1.921-1.109-3.477-3.806-3.477-6.024v-37.269l-61.023,35.262l-0.002,37.268
				c0,2.218,1.557,4.915,3.478,6.024l30.836,17.768C200.513,360.866,212.191,360.865,219.394,356.707z"/>
			<path id="XMLID_439_" style="opacity:0.2;" d="M173.649,340.543v4.839l-11.184-6.445c-1.907-1.104-3.474-3.795-3.474-6.024
				v-37.264l11.626-6.707c0.241,2.952,0.502,6.004,0.743,8.976l-8.152,4.719v27.847c0,2.229,1.546,4.919,3.474,6.024
				L173.649,340.543z"/>
			<path id="XMLID_438_" style="fill:#27DEBF;" d="M163.206,330.491c0,2.218,1.557,4.915,3.478,6.024l26.622,15.335
				c7.203,4.159,18.882,4.16,26.085,0.003l34.955-20.199c7.204-4.157,7.205-10.898,0.002-15.057l-26.639-15.345
				c-1.921-1.109-3.478-3.806-3.478-6.024l0-27.851l-61.024,35.262V330.491z"/>
			<path id="XMLID_1568_" style="opacity:0.3;" d="M163.206,330.491c0,2.218,1.557,4.915,3.478,6.024l26.622,15.335
				c7.203,4.159,18.882,4.16,26.085,0.003l34.955-20.199c7.204-4.157,7.205-10.898,0.002-15.057l-26.639-15.345
				c-1.921-1.109-3.478-3.806-3.478-6.024l0-27.851l-61.024,35.262V330.491z"/>
			<path id="XMLID_437_" style="opacity:0.6;fill:#27DEBF;" d="M234.792,305.346v-0.005l-7.084-4.09
				c-1.921-1.109-3.478-3.806-3.478-6.024l0-27.851l-61.025,35.262v27.852c0,2.218,1.557,4.915,3.478,6.024l6.961,4.019
				L234.792,305.346z"/>
			<path id="XMLID_1573_" style="opacity:0.3;" d="M234.792,305.346v-0.005l-7.084-4.09c-1.921-1.109-3.478-3.806-3.478-6.024
				l0-27.851l-61.025,35.262v27.852c0,2.218,1.557,4.915,3.478,6.024l6.961,4.019L234.792,305.346z"/>
			<path id="XMLID_429_" style="fill:#27DEBF;" d="M259.741,324.121c0,0,0,2.128,0,4.859s-1.807,5.441-5.401,7.53l-34.943,20.19
				c-3.454,2.008-7.931,3.012-12.449,3.092v-4.839c4.518-0.06,8.995-1.104,12.449-3.092l34.943-20.21
				C257.934,329.582,259.741,326.852,259.741,324.121z"/>
			<path id="XMLID_1618_" style="opacity:0.2;" d="M259.741,324.121c0,0,0,2.128,0,4.859s-1.807,5.441-5.401,7.53l-34.943,20.19
				c-3.454,2.008-7.931,3.012-12.449,3.092v-4.839c4.518-0.06,8.995-1.104,12.449-3.092l34.943-20.21
				C257.934,329.582,259.741,326.852,259.741,324.121z"/>
		</g>
		<path id="XMLID_408_" style="fill:#27DEBF;" d="M65.224,372.326c2.252,1.3,6.025,1.23,8.426-0.156
			c30.001-17.321,206-118.932,235.997-136.25c2.401-1.386,4.346-4.757,4.346-7.529V43.283c0-2.772-1.826-6.074-4.078-7.374
			c-2.252-1.3-6.024-1.23-8.425,0.156L65.497,172.315c-2.401,1.386-4.347,4.757-4.347,7.53l-0.003,185.107
			C61.147,367.724,62.972,371.026,65.224,372.326z"/>
		<path id="XMLID_1551_" style="opacity:0.3;" d="M65.224,372.326c2.252,1.3,6.025,1.23,8.426-0.156
			c30.001-17.321,206-118.932,235.997-136.25c2.401-1.386,4.346-4.757,4.346-7.529V43.283c0-2.772-1.826-6.074-4.078-7.374
			c-2.252-1.3-6.024-1.23-8.425,0.156L65.497,172.315c-2.401,1.386-4.347,4.757-4.347,7.53l-0.003,185.107
			C61.147,367.724,62.972,371.026,65.224,372.326z"/>
		<path id="XMLID_406_" style="fill:#27DEBF;" d="M73.651,372.165l235.996-136.249c2.401-1.386,4.347-4.757,4.347-7.53V43.278
			c0-2.772-1.946-3.896-4.347-2.51L73.654,177.018c-2.401,1.386-4.347,4.757-4.347,7.53l-0.003,185.107
			C69.304,372.427,71.25,373.551,73.651,372.165z"/>
		<path id="XMLID_1550_" style="opacity:0.5;" d="M73.651,372.165l235.996-136.249c2.401-1.386,4.347-4.757,4.347-7.53V43.278
			c0-2.772-1.946-3.896-4.347-2.51L73.654,177.018c-2.401,1.386-4.347,4.757-4.347,7.53l-0.003,185.107
			C69.304,372.427,71.25,373.551,73.651,372.165z"/>
		<path id="XMLID_404_" style="fill:#27DEBF;" d="M73.011,377.127c-2.409,1.064-5.742,1.024-7.791-0.161
			c-2.249-1.305-4.076-4.598-4.076-7.389V358l8.152,4.719v11.577C69.297,376.826,70.903,377.971,73.011,377.127z"/>
		<path id="XMLID_515_" style="opacity:0.4;" d="M73.011,377.127c-2.409,1.064-5.742,1.024-7.791-0.161
			c-2.249-1.305-4.076-4.598-4.076-7.389V358l8.152,4.719v11.577C69.297,376.826,70.903,377.971,73.011,377.127z"/>
		<path id="XMLID_403_" style="fill:#27DEBF;" d="M69.297,362.719l0.007,11.57c0,2.772,1.947,3.896,4.347,2.51L309.647,240.55
			c2.401-1.386,4.347-4.757,4.347-7.53v-11.608L69.297,362.719z"/>
		<path id="XMLID_510_" style="opacity:0.3;" d="M69.297,362.719l0.007,11.57c0,2.772,1.947,3.896,4.347,2.51L309.647,240.55
			c2.401-1.386,4.347-4.757,4.347-7.53v-11.608L69.297,362.719z"/>
		<path id="XMLID_395_" style="fill:#27DEBF;" d="M77.458,340.91l0.002-153.655c0-1.664,1.168-3.686,2.608-4.518L303.224,53.898
			c1.441-0.832,2.609-0.157,2.609,1.506l0.007,153.659c0,1.663-1.168,3.686-2.608,4.518L80.067,342.416
			C78.626,343.248,77.458,342.574,77.458,340.91z"/>
		<path id="XMLID_390_" style="fill:#37474F;" d="M77.458,340.91l0.002-153.655c0-1.664,1.168-3.686,2.608-4.518L303.224,53.898
			c1.441-0.832,2.609-0.157,2.609,1.506l0.007,153.659c0,1.663-1.168,3.686-2.608,4.518L80.067,342.416
			C78.626,343.248,77.458,342.574,77.458,340.91z"/>
		<path id="XMLID_386_" style="fill:#27DEBF;" d="M191.646,296.39c-1.986,1.147-3.596,3.935-3.596,6.228
			c0,2.293,1.61,3.222,3.596,2.076c1.986-1.147,3.596-3.935,3.596-6.228C195.242,296.172,193.632,295.243,191.646,296.39z"/>
		<path id="XMLID_381_" style="fill:#27DEBF;" d="M70.582,180.247c-0.783,1.365-1.265,2.911-1.285,4.297v178.175L61.145,358
			l0.005-178.155c0-1.385,0.497-2.931,1.28-4.296L70.582,180.247z"/>
		<path id="XMLID_1562_" style="opacity:0.7;" d="M70.582,180.247c-0.783,1.365-1.265,2.911-1.285,4.297v178.175L61.145,358
			l0.005-178.155c0-1.385,0.497-2.931,1.28-4.296L70.582,180.247z"/>
	</g>
</g>
<g id="ladder">
	<g id="XMLID_1883_">
		<path id="XMLID_1967_" style="fill:#27DEBF;" d="M408.089,160.397l-41.61,113.241l-0.009,0.019
			c-0.093,0.29-0.336,0.56-0.728,0.784c-1.046,0.607-2.745,0.607-3.791,0c-0.458-0.262-0.71-0.588-0.775-0.934
			c-0.019-0.103-0.019-0.205,0-0.308c0.009-0.252,0.056-0.514,0.149-0.775l41.722-113.876c0.514-1.391,2.054-2.11,3.446-1.597
			C407.883,157.464,408.602,159.005,408.089,160.397z"/>
		<path id="XMLID_2078_" style="opacity:0.5;" d="M408.089,160.397l-41.61,113.241l-0.009,0.019c-0.093,0.29-0.336,0.56-0.728,0.784
			c-1.046,0.607-2.745,0.607-3.791,0c-0.458-0.262-0.71-0.588-0.775-0.934c-0.019-0.103-0.019-0.205,0-0.308
			c0.009-0.252,0.056-0.514,0.149-0.775l41.722-113.876c0.514-1.391,2.054-2.11,3.446-1.597
			C407.883,157.464,408.602,159.005,408.089,160.397z"/>
		<g id="XMLID_1966_">
			
				<rect id="XMLID_2074_" x="370.33" y="224.263" transform="matrix(0.5 -0.866 0.866 0.5 -28.4137 447.4925)" style="fill:#27DEBF;" width="5.999" height="48.18"/>
		</g>
		<g id="XMLID_2071_" style="opacity:0.6;">
			
				<rect id="XMLID_2081_" x="370.33" y="224.263" transform="matrix(0.5 -0.866 0.866 0.5 -28.4137 447.4925)" width="5.999" height="48.18"/>
		</g>
		<g id="XMLID_1965_">
			
				<rect id="XMLID_2073_" x="400.675" y="206.745" transform="matrix(0.5 -0.866 0.866 0.5 1.9332 465.0165)" style="fill:#27DEBF;" width="5.999" height="48.179"/>
		</g>
		<g id="XMLID_2083_" style="opacity:0.6;">
			
				<rect id="XMLID_2084_" x="400.675" y="206.745" transform="matrix(0.5 -0.866 0.866 0.5 1.9332 465.0165)" width="5.999" height="48.179"/>
		</g>
		<path id="XMLID_1964_" style="fill:#27DEBF;" d="M374.136,152.618l22.252-12.849c1.821-1.046,3.857-1.205,5.584-0.439
			c1.728,0.766,2.969,2.381,3.408,4.435l36.941,172.826c0.028,0.121,0.047,0.234,0.047,0.355c0.019,0.121,0.019,0.252,0.009,0.374
			c-0.065,0.336-0.318,0.663-0.775,0.924c-1.046,0.607-2.745,0.607-3.791,0c-0.392-0.233-0.635-0.513-0.738-0.803
			c-0.019-0.056-0.028-0.112-0.037-0.159l-36.903-172.397c-0.084-0.374-0.233-0.607-0.345-0.654
			c-0.103-0.047-0.374-0.009-0.71,0.187l-22.262,12.849"/>
		<path id="XMLID_2077_" style="opacity:0.4;" d="M374.136,152.618l22.252-12.849c1.821-1.046,3.857-1.205,5.584-0.439
			c1.728,0.766,2.969,2.381,3.408,4.435l36.941,172.826c0.028,0.121,0.047,0.234,0.047,0.355c0.019,0.121,0.019,0.252,0.009,0.374
			c-0.065,0.336-0.318,0.663-0.775,0.924c-1.046,0.607-2.745,0.607-3.791,0c-0.392-0.233-0.635-0.513-0.738-0.803
			c-0.019-0.056-0.028-0.112-0.037-0.159l-36.903-172.397c-0.084-0.374-0.233-0.607-0.345-0.654
			c-0.103-0.047-0.374-0.009-0.71,0.187l-22.262,12.849"/>
		<g id="XMLID_1962_">
			<path id="XMLID_1963_" style="fill:#27DEBF;" d="M410.453,317.777l-13.555-7.826c-0.447-0.258-0.809-0.885-0.809-1.401v-0.323
				c0-0.516,0.362-1.143,0.809-1.401l32.521-18.776c0.447-0.258,1.171-0.258,1.617,0l13.555,7.826
				c0.447,0.258,0.809,0.885,0.809,1.401v0.322c0,0.516-0.362,1.143-0.809,1.401l-32.521,18.776
				C411.623,318.034,410.899,318.034,410.453,317.777z"/>
			<path id="XMLID_1961_" style="opacity:0.1;" d="M396.326,307.43c-0.146,0.254-0.237,0.539-0.237,0.797v0.323
				c0,0.516,0.362,1.142,0.809,1.4l13.555,7.827c0.223,0.129,0.516,0.193,0.809,0.193v-1.917L396.326,307.43z"/>
			<path id="XMLID_1959_" style="opacity:0.15;" d="M411.261,316.053v1.917c0.293,0,0.585-0.064,0.809-0.193l16.26-9.388
				l16.26-9.388c0.447-0.258,0.809-0.885,0.809-1.401v-0.322c0-0.258-0.091-0.544-0.237-0.797L411.261,316.053z"/>
		</g>
		<g id="XMLID_1955_">
			<path id="XMLID_1960_" style="fill:#27DEBF;" d="M404.575,290.294l-13.555-7.826c-0.447-0.258-0.809-0.885-0.809-1.401v-0.323
				c0-0.516,0.362-1.143,0.809-1.401l32.521-18.776c0.447-0.258,1.171-0.258,1.617,0l13.555,7.826
				c0.447,0.258,0.809,0.885,0.809,1.401v0.323c0,0.516-0.362,1.143-0.809,1.401l-32.521,18.776
				C405.746,290.552,405.022,290.552,404.575,290.294z"/>
			<path id="XMLID_1958_" style="opacity:0.1;" d="M390.449,279.947c-0.146,0.254-0.237,0.539-0.237,0.797v0.323
				c0,0.516,0.362,1.143,0.809,1.401l13.555,7.826c0.223,0.129,0.516,0.194,0.809,0.194v-1.917L390.449,279.947z"/>
			<path id="XMLID_1956_" style="opacity:0.15;" d="M405.384,288.571v1.917c0.293,0,0.585-0.065,0.809-0.193l16.26-9.388
				l16.26-9.388c0.447-0.258,0.809-0.885,0.809-1.401v-0.323c0-0.258-0.091-0.544-0.237-0.797L405.384,288.571z"/>
		</g>
		<g id="XMLID_1950_">
			<path id="XMLID_1954_" style="fill:#27DEBF;" d="M398.698,262.811l-13.555-7.826c-0.447-0.258-0.809-0.885-0.809-1.401v-0.323
				c0-0.516,0.362-1.143,0.809-1.401l32.52-18.776c0.447-0.258,1.171-0.258,1.617,0l13.555,7.826
				c0.447,0.258,0.809,0.885,0.809,1.401v0.323c0,0.516-0.362,1.143-0.809,1.401l-32.52,18.776
				C399.869,263.069,399.145,263.069,398.698,262.811z"/>
			<path id="XMLID_1952_" style="opacity:0.1;" d="M384.571,252.464c-0.146,0.253-0.237,0.539-0.237,0.797v0.323
				c0,0.516,0.362,1.143,0.809,1.401l6.777,3.913l6.777,3.913c0.223,0.129,0.516,0.193,0.809,0.193v-1.917L384.571,252.464z"/>
			<path id="XMLID_1951_" style="opacity:0.15;" d="M399.507,261.088v1.917c0.293,0,0.585-0.064,0.809-0.193l16.26-9.388
				l16.26-9.388c0.447-0.258,0.809-0.885,0.809-1.401v-0.323c0-0.258-0.09-0.544-0.237-0.797L399.507,261.088z"/>
		</g>
		<g id="XMLID_1943_">
			<path id="XMLID_1949_" style="fill:#27DEBF;" d="M392.821,235.328l-13.555-7.826c-0.447-0.258-0.809-0.885-0.809-1.401v-0.323
				c0-0.516,0.362-1.143,0.809-1.401l32.52-18.776c0.447-0.258,1.171-0.258,1.617,0l13.555,7.826
				c0.447,0.258,0.809,0.885,0.809,1.401v0.322c0,0.516-0.362,1.143-0.809,1.401l-32.52,18.776
				C393.991,235.586,393.267,235.586,392.821,235.328z"/>
			<path id="XMLID_1947_" style="opacity:0.15;" d="M393.629,233.605v1.917c0.293,0,0.585-0.064,0.809-0.193l16.26-9.388
				l16.26-9.388c0.447-0.258,0.809-0.885,0.809-1.401v-0.323c0-0.258-0.09-0.544-0.237-0.797L393.629,233.605z"/>
			<path id="XMLID_1946_" style="opacity:0.1;" d="M378.694,224.982c-0.146,0.254-0.237,0.539-0.237,0.797v0.323
				c0,0.516,0.362,1.143,0.809,1.401l13.555,7.826c0.223,0.129,0.516,0.193,0.809,0.193v-1.917L378.694,224.982z"/>
		</g>
		<g id="XMLID_1889_">
			<path id="XMLID_1927_" style="fill:#27DEBF;" d="M386.943,207.846l-22.526-13.003c-0.447-0.258-0.809-0.885-0.809-1.401v-0.323
				c0-0.516,0.362-1.143,0.809-1.401l32.52-18.776c0.447-0.258,1.171-0.258,1.617,0l22.526,13.003
				c0.447,0.258,0.809,0.885,0.809,1.401v0.322c0,0.516-0.362,1.143-0.809,1.401l-32.521,18.776
				C388.114,208.104,387.39,208.104,386.943,207.846z"/>
			<path id="XMLID_1893_" style="opacity:0.15;" d="M387.752,206.122v1.917c0.293,0,0.585-0.064,0.809-0.193l16.26-9.388
				l16.26-9.388c0.447-0.258,0.809-0.885,0.809-1.401v-0.323c0-0.258-0.091-0.544-0.237-0.797L387.752,206.122z"/>
			<path id="XMLID_1890_" style="opacity:0.1;" d="M363.846,192.323c-0.146,0.254-0.237,0.539-0.237,0.797v0.323
				c0,0.516,0.362,1.143,0.809,1.401l22.526,13.003c0.223,0.129,0.516,0.193,0.809,0.193v-1.917L363.846,192.323z"/>
		</g>
		<path id="XMLID_1887_" style="fill:#27DEBF;" d="M377.75,177.915l-41.572,113.11l-0.009,0.037l-0.093,0.252
			c-0.121,0.233-0.345,0.458-0.672,0.654c-1.046,0.598-2.745,0.598-3.801,0c-0.458-0.271-0.71-0.598-0.775-0.934
			c-0.009-0.103-0.009-0.205,0-0.308c0.009-0.271,0.065-0.523,0.159-0.784l41.722-113.876c0.504-1.391,2.045-2.101,3.446-1.597
			C377.544,174.982,378.254,176.523,377.75,177.915z"/>
		<path id="XMLID_2079_" style="opacity:0.5;" d="M377.75,177.915l-41.572,113.11l-0.009,0.037l-0.093,0.252
			c-0.121,0.233-0.345,0.458-0.672,0.654c-1.046,0.598-2.745,0.598-3.801,0c-0.458-0.271-0.71-0.598-0.775-0.934
			c-0.009-0.103-0.009-0.205,0-0.308c0.009-0.271,0.065-0.523,0.159-0.784l41.722-113.876c0.504-1.391,2.045-2.101,3.446-1.597
			C377.544,174.982,378.254,176.523,377.75,177.915z"/>
		<path id="XMLID_1885_" style="fill:#27DEBF;" d="M376.816,157.268c-1.233,0.719-2.082,2.624-1.783,4.015l36.95,172.817
			c0.037,0.14,0.056,0.28,0.056,0.42c0.009,0.093,0.009,0.196,0,0.299c-0.056,0.336-0.317,0.672-0.775,0.943
			c-1.046,0.607-2.745,0.607-3.791,0c-0.383-0.224-0.626-0.495-0.738-0.775c0-0.009,0-0.019-0.009-0.028l-0.047-0.224
			l-36.894-172.322c-0.775-3.632,1.13-7.937,4.351-9.796"/>
		<path id="XMLID_2082_" style="opacity:0.4;" d="M411.983,334.1l-36.95-172.817c-0.299-1.391,0.551-3.296,1.784-4.015l-2.68-4.65
			c-3.221,1.858-5.126,6.163-4.351,9.796l36.894,172.322l0.047,0.224c0.009,0.009,0.009,0.019,0.009,0.028
			c0.112,0.28,0.355,0.551,0.738,0.775c1.046,0.607,2.745,0.607,3.791,0c0.458-0.271,0.719-0.607,0.775-0.943
			c0.009-0.103,0.009-0.205,0-0.299C412.039,334.381,412.02,334.241,411.983,334.1z"/>
	</g>
</g>
<g id="Windows">
	<g>
		<g id="XMLID_490_">
			<g id="XMLID_509_">
				<path id="XMLID_513_" style="fill:#27DEBF;" d="M343.853,76.707c0.063,0.072,0.11,0.164,0.162,0.251
					C343.962,76.871,343.916,76.778,343.853,76.707z"/>
				<path id="XMLID_514_" style="fill:#27DEBF;" d="M344.113,77.113c0.048,0.103,0.077,0.226,0.109,0.344
					C344.19,77.338,344.161,77.215,344.113,77.113z"/>
				<path id="XMLID_517_" style="fill:#EBEBEB;" d="M115.956,363.168v-153.04c0-1.81,1.27-4.02,2.84-4.92l222.7-128.59
					c0.785-0.455,1.495-0.497,2.009-0.2c-0.542-0.317-3.52-2.021-3.987-2.336c-0.519-0.349-1.261-0.326-2.086,0.152l-222.7,128.59
					c-1.57,0.9-2.84,3.11-2.84,4.92v153.04c0,0.905,0.317,1.54,0.831,1.836c0.514,0.296,3.55,2.043,4.06,2.341
					c0.001,0.001,0,0,0.001,0.001C116.272,364.666,115.956,364.072,115.956,363.168z"/>
				<g id="XMLID_883_">
					<path id="XMLID_873_" style="fill:#27DEBF;" d="M112.51,205.366c-0.381,0.78-0.618,1.613-0.618,2.379v23.061l4.061,2.345
						l0.003-0.016v-23.007c0-0.776,0.243-1.62,0.633-2.408L112.51,205.366z"/>
					<path id="XMLID_851_" style="opacity:0.15;" d="M112.51,205.366c-0.381,0.78-0.618,1.613-0.618,2.379v23.061l4.061,2.345
						l0.003-0.016v-23.007c0-0.776,0.243-1.62,0.633-2.408L112.51,205.366z"/>
				</g>
				<g id="XMLID_881_">
					<path id="XMLID_876_" style="fill:#27DEBF;" d="M118.796,205.208l222.7-128.59c0.785-0.455,1.495-0.497,2.009-0.2
						c-0.542-0.317-3.52-2.021-3.987-2.336c-0.519-0.349-1.261-0.326-2.086,0.152l-222.7,128.59
						c-0.905,0.519-1.702,1.478-2.222,2.541l4.078,2.355l0,0C117.109,206.669,117.898,205.723,118.796,205.208z"/>
					<path id="XMLID_512_" style="opacity:0.4;fill:#FFFFFF;" d="M118.796,205.208l222.7-128.59c0.785-0.455,1.495-0.497,2.009-0.2
						c-0.542-0.317-3.52-2.021-3.987-2.336c-0.519-0.349-1.261-0.326-2.086,0.152l-222.7,128.59
						c-0.905,0.519-1.702,1.478-2.222,2.541l4.078,2.355l0,0C117.109,206.669,117.898,205.723,118.796,205.208z"/>
				</g>
				<path id="XMLID_511_" style="fill:#FAFAFA;" d="M344.336,78.238v153.04c0,1.81-1.27,4.01-2.84,4.92l-222.7,128.59
					c-1.571,0.846-2.841,0.116-2.84-1.64v-153.04c0-1.81,1.27-4.02,2.84-4.92l222.7-128.59
					C343.066,75.688,344.336,76.428,344.336,78.238z"/>
				<path id="XMLID_519_" style="fill:#27DEBF;" d="M343.51,76.422c-0.001-0.001-0.005-0.003-0.006-0.003
					c0.074,0.043,0.134,0.108,0.2,0.165C343.641,76.528,343.582,76.464,343.51,76.422z"/>
				<path id="XMLID_520_" style="fill:#27DEBF;" d="M344.278,77.632c0.038,0.191,0.057,0.4,0.057,0.626
					C344.336,78.033,344.316,77.824,344.278,77.632z"/>
				<path id="XMLID_529_" style="fill:#FAFAFA;" d="M343.504,76.419C343.504,76.419,343.504,76.419,343.504,76.419
					C343.504,76.419,343.504,76.419,343.504,76.419z"/>
				<path id="XMLID_558_" style="fill:#FAFAFA;" d="M344.223,77.457c0.017,0.06,0.043,0.111,0.055,0.175
					C344.266,77.568,344.24,77.518,344.223,77.457z"/>
				<path id="XMLID_562_" style="fill:#FAFAFA;" d="M344.014,76.958c0.032,0.053,0.072,0.096,0.099,0.155
					C344.086,77.054,344.046,77.011,344.014,76.958z"/>
				<path id="XMLID_566_" style="fill:#FAFAFA;" d="M343.705,76.584c0.049,0.042,0.105,0.073,0.148,0.123
					C343.809,76.657,343.753,76.626,343.705,76.584z"/>
			</g>
			<g id="XMLID_568_">
				<path id="XMLID_516_" style="fill:#27DEBF;" d="M344.336,78.259v10l-228.38,131.87v-10c0-1.81,1.27-4.02,2.84-4.92l222.7-128.59
					C343.066,75.709,344.336,76.449,344.336,78.259z"/>
				<path id="XMLID_599_" style="fill:#E6E6E6;" d="M344.334,88.263v13.033L115.953,233.151l0.002-13.022l4.255-2.464
					c1.138-0.66,1.52-1.663,2.065-3.585l1.443-5.011c0.455-1.74,0.927-2.925,2.075-3.585l49.376-28.509
					c1.147-0.66,2.042-0.732,2.915,0.71l1.77,3.212c0.65,1.122,0.974,1.782,2.112,1.122L344.334,88.263z"/>
				<g id="XMLID_586_">
					<path id="XMLID_592_" style="fill:#FFFFFF;" d="M336.301,83.626c1.219-0.704,2.208-0.133,2.208,1.275
						c0,1.408-0.989,3.12-2.208,3.824c-1.22,0.704-2.208,0.133-2.208-1.275C334.093,86.043,335.081,84.33,336.301,83.626z"/>
					<path id="XMLID_588_" style="fill:#FFFFFF;" d="M328.351,88.21c1.219-0.704,2.208-0.133,2.208,1.275
						c0,1.408-0.989,3.12-2.208,3.824c-1.219,0.704-2.208,0.133-2.208-1.275C326.143,90.626,327.132,88.914,328.351,88.21z"/>
					<path id="XMLID_587_" style="fill:#FFFFFF;" d="M320.402,92.793c1.22-0.704,2.208-0.133,2.208,1.275
						c0,1.408-0.988,3.12-2.208,3.824c-1.219,0.704-2.208,0.133-2.208-1.275C318.194,95.209,319.182,93.497,320.402,92.793z"/>
				</g>
				<path id="XMLID_585_" style="opacity:0.5;fill:#455A64;" d="M125.449,221.099l-3.249,1.876l1.239-2.383
					c0.109-0.209,0.12-0.47,0.024-0.582c-0.095-0.114-0.26-0.033-0.368,0.175l-1.763,3.391c-0.002,0.004-0.003,0.009-0.005,0.013
					c-0.019,0.039-0.034,0.082-0.047,0.125c-0.004,0.014-0.011,0.027-0.014,0.041c-0.014,0.058-0.023,0.117-0.023,0.175
					c0,0.058,0.008,0.107,0.023,0.149c0.003,0.01,0.01,0.016,0.014,0.025c0.013,0.028,0.028,0.054,0.047,0.071
					c0.002,0.002,0.003,0.006,0.005,0.007l1.763,1.355c0.05,0.038,0.111,0.035,0.172,0c0.072-0.042,0.145-0.13,0.196-0.251
					c0.096-0.223,0.084-0.47-0.024-0.554l-1.239-0.952l3.249-1.876c0.145-0.083,0.261-0.331,0.261-0.553
					C125.71,221.128,125.593,221.016,125.449,221.099z"/>
				<path id="XMLID_584_" style="opacity:0.5;fill:#455A64;" d="M128.163,219.532l3.249-1.876l-1.239-0.952
					c-0.109-0.083-0.12-0.331-0.024-0.554c0.095-0.223,0.26-0.334,0.369-0.251l1.763,1.355c0.002,0.002,0.003,0.005,0.005,0.007
					c0.02,0.017,0.034,0.042,0.047,0.071c0.004,0.009,0.011,0.014,0.014,0.025c0.014,0.042,0.023,0.091,0.023,0.149
					c0,0.058-0.009,0.117-0.023,0.175c-0.003,0.014-0.01,0.027-0.014,0.041c-0.013,0.043-0.028,0.086-0.047,0.125
					c-0.002,0.004-0.003,0.009-0.005,0.013l-1.763,3.391c-0.05,0.095-0.111,0.163-0.172,0.199c-0.072,0.042-0.145,0.037-0.197-0.024
					c-0.095-0.113-0.084-0.373,0.024-0.582l1.239-2.383l-3.249,1.876c-0.145,0.083-0.261-0.029-0.261-0.251
					C127.902,219.863,128.018,219.616,128.163,219.532z"/>
				<path id="XMLID_583_" style="opacity:0.5;fill:#455A64;" d="M138.822,210.176c-0.02-0.196-0.191-0.171-0.277,0.041l-0.445,1.088
					c-0.759-0.082-1.678,0.659-2.299,1.973c-0.805,1.704-0.805,3.719,0,4.494c0.402,0.387,0.931,0.392,1.46,0.086
					c0.528-0.305,1.057-0.92,1.459-1.771c0.102-0.216,0.102-0.471,0-0.569c-0.102-0.098-0.268-0.003-0.37,0.213
					c-0.601,1.27-1.579,1.837-2.179,1.258c-0.601-0.578-0.601-2.084,0-3.356c0.427-0.905,1.042-1.44,1.579-1.473l-0.335,0.82
					c-0.087,0.213-0.008,0.411,0.129,0.322l1.325-0.865c0.093-0.061,0.162-0.23,0.148-0.363L138.822,210.176z"/>
				<path id="XMLID_582_" style="opacity:0.5;fill:#455A64;" d="M173.744,183.118l1.184-2.507c0.14-0.297,0.14-0.646,0-0.781
					c-0.14-0.134-0.367-0.004-0.507,0.293l-1.184,2.507l-1.184-1.14c-0.14-0.135-0.367-0.004-0.507,0.293s-0.14,0.646,0,0.78
					l1.184,1.14l-1.184,2.507c-0.14,0.296-0.14,0.646,0,0.781c0.07,0.067,0.162,0.068,0.253,0.015
					c0.092-0.053,0.184-0.16,0.253-0.308l1.184-2.507l1.184,1.14c0.07,0.067,0.162,0.068,0.253,0.015
					c0.092-0.053,0.184-0.16,0.253-0.308c0.14-0.297,0.14-0.646,0-0.78L173.744,183.118z"/>
				<path id="XMLID_581_" style="fill:#FAFAFA;" d="M143.133,213.258v-4.188c0-1.32,0.927-2.925,2.07-3.585L330.619,98.476
					c1.143-0.66,2.07-0.125,2.07,1.195l0,4.188c0,1.32-0.927,2.925-2.07,3.585L145.203,214.453
					C144.06,215.113,143.133,214.578,143.133,213.258z"/>
				<g id="XMLID_580_">
					<path id="XMLID_567_" style="fill:#E6E6E6;" d="M327.804,107.783c-0.07,0-0.137-0.015-0.193-0.038
						c-0.184-0.076-0.364-0.285-0.32-0.644l0.202-1.688l-0.789-0.571c-0.143-0.103-0.224-0.271-0.227-0.474
						c-0.005-0.278,0.136-0.575,0.348-0.738l1.216-0.937c0.008-0.008,0.032-0.04,0.046-0.086l0.545-1.783
						c0.101-0.333,0.352-0.569,0.627-0.59c0.215-0.02,0.4,0.1,0.492,0.296l0.45,0.956l1.014-0.389
						c0.207-0.078,0.424-0.031,0.566,0.131c0.181,0.204,0.192,0.549,0.029,0.855l-0.88,1.651l0.18,1.583
						c0.036,0.257-0.069,0.563-0.264,0.76c-0.143,0.146-0.32,0.217-0.495,0.192l-0.984-0.122l-1.067,1.363
						C328.143,107.71,327.962,107.783,327.804,107.783z M327.238,104.302l0.784,0.567c0.169,0.122,0.25,0.335,0.221,0.585
						l-0.129,1.075l0.683-0.871c0.151-0.195,0.355-0.291,0.562-0.268l0.981,0.122c0.017-0.032,0.03-0.071,0.028-0.092l-0.207-1.494
						c-0.025-0.171,0.015-0.37,0.107-0.546l0.75-1.405l-0.752,0.288c-0.261,0.097-0.534-0.011-0.65-0.262l-0.34-0.722l-0.472,1.544
						c-0.056,0.187-0.168,0.355-0.307,0.462l-1.216,0.938C327.266,104.237,327.249,104.27,327.238,104.302z"/>
				</g>
				<g id="XMLID_570_" style="opacity:0.5;">
					<g id="XMLID_578_">
						<path id="XMLID_579_" style="fill:#455A64;" d="M335.348,98.071c-0.233,0.004-0.461-0.113-0.588-0.327
							c-0.191-0.319-0.087-0.731,0.231-0.922l5.409-3.244c0.32-0.191,0.731-0.087,0.922,0.231c0.191,0.319,0.087,0.731-0.231,0.922
							l-5.409,3.244C335.577,98.038,335.462,98.069,335.348,98.071z"/>
					</g>
					<g id="XMLID_576_">
						<path id="XMLID_577_" style="fill:#455A64;" d="M335.31,101.18c-0.233,0-0.459-0.12-0.583-0.336
							c-0.186-0.322-0.075-0.733,0.246-0.919l5.462-3.154c0.323-0.187,0.733-0.075,0.918,0.246c0.186,0.322,0.075,0.733-0.246,0.918
							l-5.462,3.154C335.54,101.151,335.424,101.18,335.31,101.18z"/>
					</g>
					<g id="XMLID_571_">
						<path id="XMLID_572_" style="fill:#455A64;" d="M335.31,104.335c-0.233,0-0.459-0.12-0.583-0.336
							c-0.186-0.322-0.075-0.733,0.246-0.918l5.462-3.154c0.323-0.187,0.733-0.075,0.918,0.246c0.186,0.322,0.075,0.733-0.246,0.918
							l-5.462,3.154C335.54,104.306,335.424,104.335,335.31,104.335z"/>
					</g>
				</g>
			</g>
			<polygon id="XMLID_872_" style="fill:#E6E6E6;" points="115.953,220.129 111.89,217.784 111.892,230.806 115.953,233.151 			"/>
		</g>
		<g id="XMLID_491_">
			<g id="XMLID_323_">
				<path id="XMLID_896_" style="fill:#27DEBF;" d="M336.635,117.365c-0.38-0.17-0.89-0.12-1.44,0.2l-206.9,119.45
					c-1.19,0.69-2.16,2.37-2.16,3.75v9.07c0,0.66,0.22,1.14,0.59,1.38c-0.37-0.24-3.64-2.09-4.04-2.33
					c-0.38-0.23-0.62-0.71-0.62-1.39v-9.07c0-1.38,0.97-3.06,2.17-3.75l206.89-119.46c0.61-0.35,1.16-0.37,1.55-0.14
					C333.025,115.285,335.865,116.895,336.635,117.365z"/>
				<path id="XMLID_488_" style="fill:#27DEBF;" d="M128.296,237.016l206.896-119.451c1.196-0.69,2.165-0.131,2.165,1.25l0,9.071
					c0,1.381-0.969,3.06-2.165,3.75L128.296,251.088c-1.196,0.69-2.165,0.131-2.165-1.25l0-9.071
					C126.131,239.386,127.1,237.707,128.296,237.016z"/>
				<path id="XMLID_492_" style="opacity:0.15;" d="M126.767,238.634l-4.065-2.347c-0.394,0.68-0.638,1.446-0.638,2.138v9.07
					c0,0.68,0.24,1.16,0.62,1.39c0.4,0.24,3.67,2.09,4.04,2.33c-0.37-0.24-0.59-0.72-0.59-1.38v-9.07
					C126.135,240.076,126.377,239.312,126.767,238.634z"/>
				<path id="XMLID_500_" style="opacity:0.4;fill:#FFFFFF;" d="M336.635,117.365c-0.77-0.47-3.61-2.08-3.96-2.29
					c-0.39-0.23-0.94-0.21-1.55,0.14l-206.89,119.46c-0.599,0.344-1.14,0.935-1.532,1.612l4.065,2.347
					c0.391-0.68,0.932-1.274,1.527-1.619l206.9-119.45C335.745,117.245,336.255,117.195,336.635,117.365z"/>
			</g>
			<path id="XMLID_472_" style="fill:#FAFAFA;" d="M329.232,128.041c0,1.295-0.969,2.905-2.165,3.595l-52.538,30.333
				c-1.196,0.69-2.165,0.2-2.165-1.095c0-1.295,0.969-2.905,2.165-3.595l52.539-30.333
				C328.263,126.255,329.232,126.745,329.232,128.041z"/>
		</g>
		<g id="XMLID_1034_">
			<path id="XMLID_1005_" style="fill:#455A64;" d="M237.813,200.3l95.839-55.347c0.911-0.526,1.65-0.152,1.65,0.835
				s-0.739,2.214-1.65,2.74l-95.839,55.347c-0.911,0.526-1.65,0.152-1.65-0.835S236.902,200.826,237.813,200.3z"/>
			<path id="XMLID_1035_" style="fill:#455A64;" d="M237.813,207.45l95.839-55.347c0.911-0.526,1.65-0.152,1.65,0.835
				s-0.739,2.214-1.65,2.74l-95.839,55.347c-0.911,0.526-1.65,0.152-1.65-0.835S236.902,207.976,237.813,207.45z"/>
			<path id="XMLID_1036_" style="fill:#455A64;" d="M237.813,214.6l95.839-55.346c0.911-0.526,1.65-0.152,1.65,0.835
				c0,0.987-0.739,2.214-1.65,2.74l-95.839,55.347c-0.911,0.526-1.65,0.152-1.65-0.835
				C236.163,216.353,236.902,215.126,237.813,214.6z"/>
		</g>
	</g>
	<g id="Gears">
		<path id="XMLID_1037_" style="opacity:0.7;fill:#E6E6E6;" d="M124.23,260.031l93.158-53.794c1.196-0.69,2.165-0.131,2.165,1.25
			v84.115c0,1.381-0.969,3.06-2.165,3.75l-93.158,53.794c-1.196,0.69-2.165,0.131-2.165-1.25v-84.115
			C122.065,262.401,123.034,260.722,124.23,260.031z"/>
		<g id="XMLID_913_">
			<g id="XMLID_1802_">
				<path id="XMLID_1853_" style="fill:#27DEBF;" d="M165.465,273.843c-0.18-0.37-0.4-0.7-0.63-0.99c-0.12-0.15-0.24-0.28-0.37-0.41
					c-0.34-0.35-0.73-0.64-1.16-0.85c-0.21-0.12-0.43-0.21-0.66-0.29c-0.61-0.2-1.26-0.29-1.97-0.26c-0.23,0.01-0.48,0.04-0.72,0.08
					c-0.17,0.03-0.34,0.06-0.52,0.1c-0.17,0.04-0.34,0.08-0.51,0.13c-0.19,0.06-0.38,0.12-0.58,0.2c-0.17,0.06-0.34,0.13-0.51,0.2
					c0.02,0.19,0.04,0.38,0.04,0.58v0.07c0.01,0.11,0.01,0.22,0.01,0.34c0.01,0.12,0.01,0.23,0.01,0.35
					c0,6.17-4.34,13.68-9.68,16.77c-0.4,0.24-0.8,0.44-1.18,0.61v0.01c0.01,0.17,0.04,0.34,0.07,0.5c0.01,0.07,0.02,0.14,0.04,0.21
					c0.03,0.18,0.07,0.36,0.12,0.54c0.03,0.17,0.08,0.33,0.14,0.49c0.05,0.18,0.11,0.36,0.18,0.52c0.06,0.15,0.12,0.29,0.19,0.42
					c0.19,0.4,0.41,0.75,0.67,1.07c0.23,0.29,0.48,0.54,0.75,0.76c0.03,0.03,0.06,0.05,0.08,0.06c0.12,0.09,0.23,0.17,0.35,0.25
					c0.03,0.02,0.05,0.03,0.07,0.04c0.14,0.09,0.29,0.17,0.44,0.24c0.16,0.07,0.33,0.14,0.5,0.2c1.08,0.37,2.35,0.36,3.74-0.06
					c0.36-0.11,0.73-0.25,1.11-0.41c0.38-0.17,0.76-0.37,1.15-0.59c5.35-3.09,9.69-10.59,9.69-16.77
					C166.325,276.313,166.015,274.923,165.465,273.843z"/>
				<path id="XMLID_1872_" style="fill:#27DEBF;" d="M172.215,263.043l-0.98,1.97c-0.18,0.35-0.13,0.9,0.08,1.24
					c0.45,0.74,0.84,1.59,1.13,2.52c0.12,0.38,0.49,0.56,0.85,0.4l5.1-2.3c0.15-0.07,0.29-0.07,0.41-0.03L172.215,263.043z
					 M165.905,252.293l-3.7-2.14c-0.08-0.04-0.17-0.02-0.26-0.03c-0.08-0.01-0.16-0.04-0.24-0.04c-0.05,0-0.1,0.01-0.14,0.04
					c-0.09,0.05-0.17,0.12-0.24,0.19c-0.04,0.04-0.1,0.04-0.13,0.09l-3.01,4.53l-3.81-2.2l-0.08-0.04l-2.76-1.59
					c-0.01-0.01-0.02-0.01-0.03-0.01c-0.05-0.02-0.09-0.03-0.14-0.03c-0.09,0-0.19,0.02-0.29,0.08l-3.94,2.28l-0.45,0.26l-0.02,0.01
					l-1.24,0.71c-0.03,0.02-0.05,0.03-0.08,0.05c-0.08,0.05-0.15,0.11-0.22,0.18c-0.15,0.15-0.27,0.34-0.36,0.54v0.01
					c-0.05,0.11-0.09,0.23-0.1,0.34l-0.58,6.38c0,0.03-0.01,0.07-0.02,0.1c-0.01,0.11-0.04,0.23-0.09,0.34
					c-0.11,0.29-0.29,0.57-0.48,0.75c-1.12,1.03-2.19,2.16-3.19,3.37c-0.12,0.14-0.29,0.25-0.48,0.3c-0.21,0.08-0.45,0.09-0.65,0.02
					l-3.67-1.29c-0.09-0.03-0.18,0.01-0.27,0.01l-0.08-0.04c-0.03,0-0.05,0.01-0.08,0.02c-0.02,0.01-0.04,0.02-0.07,0.03
					c-0.05,0.01-0.09,0.02-0.14,0.04c-0.05,0.02-0.1,0.05-0.15,0.08c-0.04,0.02-0.09,0.05-0.12,0.09c-0.05,0.04-0.1,0.1-0.13,0.16
					l-1.73,3l-1.83,3.17l-0.65,1.13c-0.1,0.16-0.13,0.37-0.1,0.56l0.01,0.01c0.03,0.2,0.12,0.38,0.27,0.51l2.96,2.55
					c0.05,0.05,0.1,0.1,0.14,0.16c0.12,0.17,0.19,0.38,0.2,0.59c0,0.13-0.02,0.26-0.06,0.38c-0.55,1.48-0.99,2.96-1.32,4.44
					c-0.05,0.22-0.18,0.48-0.35,0.71c-0.12,0.16-0.25,0.31-0.39,0.41l-5.23,3.68c-0.07,0.05-0.13,0.11-0.19,0.18
					c-0.06,0.07-0.111,0.159-0.171,0.249l0.001,0.001c-0.13,0.22-0.23,0.47-0.23,0.7v6.62c0,0.2,0.08,0.35,0.2,0.42l6.64,3.84
					l-2.42,4.88c-0.18,0.35-0.04,0.8,0.3,0.99l9.02,5.23c0.04,0.02,0.08,0.04,0.12,0.05l-0.11-0.06l-0.6-0.35
					c-0.35-0.2-0.48-0.65-0.31-1l3.41-6.86c0.04-0.08,0.07-0.17,0.08-0.27c0.06-0.32-0.01-0.71-0.16-0.96
					c-0.46-0.75-0.84-1.6-1.14-2.53c-0.12-0.38-0.49-0.56-0.85-0.4l-2.57,1.16l-2.53,1.14c-0.17,0.08-0.33,0.08-0.45,0h-0.01
					c-0.12-0.07-0.19-0.22-0.19-0.42v-6.62c0-0.22,0.08-0.48,0.22-0.7c0.09-0.17,0.22-0.32,0.36-0.42l5.24-3.69
					c0.13-0.1,0.27-0.24,0.38-0.4c0.17-0.23,0.3-0.49,0.35-0.71c0.33-1.48,0.78-2.97,1.33-4.44c0.04-0.12,0.06-0.24,0.06-0.37v-0.01
					c-0.01-0.29-0.14-0.58-0.35-0.76l-2.95-2.54c-0.15-0.13-0.24-0.31-0.27-0.51c-0.04-0.2-0.02-0.41,0.08-0.58l1.2-2.08l1.49-2.58
					l1.53-2.64c0.13-0.23,0.38-0.38,0.65-0.4h0.01c0.13-0.03,0.25-0.02,0.37,0.02l3.68,1.28c0.2,0.07,0.449,0.068,0.66-0.012
					c0.19-0.05,0.351-0.168,0.471-0.308c1-1.21,2.07-2.34,3.18-3.37c0.19-0.17,0.37-0.46,0.48-0.74c0.06-0.16,0.11-0.31,0.12-0.45
					l0.57-6.38c0.01-0.11,0.04-0.23,0.1-0.34c0.11-0.3,0.34-0.59,0.59-0.73l1.08-0.62l2.31-1.34l2.34-1.35
					c0.16-0.09,0.31-0.1,0.43-0.05c0.01,0,0.02,0.01,0.03,0.02c0.13,0.06,0.21,0.2,0.23,0.39l0.29,2.92l0.27,2.65
					c0.04,0.39,0.38,0.62,0.76,0.54c0.96-0.22,1.89-0.31,2.76-0.28c0.26,0.01,0.57-0.1,0.8-0.26c0.13-0.09,0.23-0.19,0.31-0.3
					l4.24-6.37c0.04-0.06,0.08-0.11,0.13-0.15c0.18-0.16,0.43-0.22,0.67-0.17c0.06,0.01,0.11,0.03,0.16,0.06L165.905,252.293z
					 M153.205,311.043c-0.04-0.04-0.06-0.08-0.08-0.13c-0.03-0.06-0.04-0.12-0.05-0.19l-0.55-5.56c-0.04-0.4-0.38-0.63-0.77-0.54
					c-0.96,0.21-1.88,0.3-2.76,0.28c-0.39-0.01-0.89,0.22-1.11,0.55l-1.22,1.83l6.55,3.78
					C153.215,311.053,153.215,311.043,153.205,311.043z"/>
				<path id="XMLID_893_" style="opacity:0.55;" d="M170.585,255.003c-0.05-0.03-0.1-0.05-0.16-0.06c-0.24-0.05-0.49,0.01-0.67,0.17
					c-0.05,0.04-0.09,0.09-0.13,0.15l-4.24,6.37c-0.08,0.11-0.18,0.21-0.31,0.3c-0.23,0.16-0.54,0.27-0.8,0.26
					c-0.87-0.03-1.8,0.06-2.76,0.28c-0.38,0.08-0.72-0.15-0.76-0.54l-0.27-2.65l-0.29-2.92c-0.02-0.19-0.1-0.33-0.23-0.39
					c-0.01-0.01-0.02-0.02-0.03-0.02c-0.12-0.05-0.27-0.04-0.43,0.05l-2.34,1.35l-2.31,1.34l-1.08,0.62
					c-0.25,0.14-0.48,0.43-0.59,0.73c-0.06,0.11-0.09,0.23-0.1,0.34l-0.57,6.38c-0.01,0.14-0.06,0.29-0.12,0.45
					c-0.11,0.28-0.29,0.57-0.48,0.74c-1.11,1.03-2.18,2.16-3.18,3.37c-0.12,0.14-0.281,0.258-0.471,0.308
					c-0.21,0.08-0.46,0.082-0.66,0.012l-3.68-1.28c-0.12-0.04-0.24-0.05-0.37-0.02h-0.01c-0.27,0.02-0.52,0.17-0.65,0.4l-1.53,2.64
					l-1.49,2.58l-1.2,2.08c-0.1,0.17-0.12,0.38-0.08,0.58c0.03,0.2,0.12,0.38,0.27,0.51l2.95,2.54c0.21,0.18,0.34,0.47,0.35,0.76
					v0.01c0,0.13-0.02,0.25-0.06,0.37c-0.55,1.47-1,2.96-1.33,4.44c-0.05,0.22-0.18,0.48-0.35,0.71c-0.11,0.16-0.25,0.3-0.38,0.4
					l-5.24,3.69c-0.14,0.1-0.27,0.25-0.36,0.42c-0.14,0.22-0.22,0.48-0.22,0.7v6.62c0,0.2,0.07,0.35,0.19,0.42h0.01
					c0.12,0.08,0.28,0.08,0.45,0l2.53-1.14l2.57-1.16c0.36-0.16,0.73,0.02,0.85,0.4c0.3,0.93,0.68,1.78,1.14,2.53
					c0.15,0.25,0.22,0.64,0.16,0.96c-0.01,0.1-0.04,0.19-0.08,0.27l-3.41,6.86c-0.17,0.35-0.04,0.8,0.31,1l0.6,0.35l0.11,0.06
					c-0.04-0.01-0.08-0.03-0.12-0.05l-9.02-5.23c-0.34-0.19-0.48-0.64-0.3-0.99l2.42-4.88l-6.64-3.84c-0.12-0.07-0.2-0.22-0.2-0.42
					v-6.62c0-0.23,0.1-0.48,0.23-0.7l-0.001-0.001c0.06-0.09,0.111-0.179,0.171-0.249c0.06-0.07,0.12-0.13,0.19-0.18l5.23-3.68
					c0.14-0.1,0.27-0.25,0.39-0.41c0.17-0.23,0.3-0.49,0.35-0.71c0.33-1.48,0.77-2.96,1.32-4.44c0.04-0.12,0.06-0.25,0.06-0.38
					c-0.01-0.21-0.08-0.42-0.2-0.59c-0.04-0.06-0.09-0.11-0.14-0.16l-2.96-2.55c-0.15-0.13-0.24-0.31-0.27-0.51l-0.01-0.01
					c-0.03-0.19,0-0.4,0.1-0.56l0.65-1.13l1.83-3.17l0.5-0.87l1.27-2.2c0.19-0.32,0.58-0.47,0.93-0.34l0.06,0.02
					c0.01,0,0.01,0,0.01,0l3.37,1.19h0.01l0.29,0.1c0.2,0.07,0.44,0.06,0.65-0.02c0.19-0.05,0.36-0.16,0.48-0.3
					c1-1.21,2.07-2.34,3.19-3.37c0.19-0.18,0.37-0.46,0.48-0.75c0.05-0.11,0.08-0.23,0.09-0.34c0.01-0.03,0.02-0.07,0.02-0.1
					l0.58-6.38c0.01-0.11,0.05-0.23,0.1-0.34v-0.01c0.09-0.2,0.21-0.39,0.36-0.54c0.09-0.09,0.19-0.17,0.3-0.23l1.24-0.71l0.02-0.01
					l0.45-0.26l3.94-2.28c0.1-0.06,0.2-0.08,0.29-0.08c0.05,0,0.09,0.01,0.14,0.03c0.01,0,0.02,0,0.03,0.01l2.76,1.59l0.08,0.04
					l3.81,2.2l3.01-4.53c0.03-0.05,0.09-0.05,0.13-0.09c0.07-0.07,0.15-0.14,0.24-0.19c0.04-0.03,0.09-0.04,0.14-0.04
					c0.08,0,0.16,0.03,0.24,0.04c0.09,0.01,0.18-0.01,0.26,0.03l3.7,2.14L170.585,255.003z"/>
				<path id="XMLID_479_" style="opacity:0.55;" d="M153.125,310.913c-0.03-0.06-0.04-0.12-0.05-0.19l-0.55-5.56
					c-0.04-0.4-0.38-0.63-0.77-0.54c-0.96,0.21-1.88,0.3-2.76,0.28c-0.39-0.01-0.89,0.22-1.11,0.55l-1.22,1.83l6.55,3.78
					c0-0.01,0-0.02-0.01-0.02C153.165,311.003,153.145,310.963,153.125,310.913z"/>
				<path id="XMLID_480_" style="opacity:0.55;" d="M172.215,263.043l-0.98,1.97c-0.18,0.35-0.13,0.9,0.08,1.24
					c0.45,0.74,0.84,1.59,1.13,2.52c0.12,0.38,0.49,0.56,0.85,0.4l5.1-2.3c0.15-0.07,0.29-0.07,0.41-0.03L172.215,263.043z"/>
				<path id="XMLID_507_" style="opacity:0.15;" d="M153.185,260.043c-0.06,0.11-0.09,0.23-0.1,0.34l-0.57,6.38
					c-0.01,0.14-0.06,0.29-0.12,0.45l-8.42-4.87l-0.02-0.01c0.04-0.11,0.09-0.23,0.11-0.33c0.01-0.03,0.02-0.07,0.02-0.1l0.58-6.38
					c0.01-0.11,0.051-0.232,0.101-0.342L153.185,260.043z"/>
				<path id="XMLID_503_" style="opacity:0.15;" d="M142.165,282.433l-8.43-4.87l-0.04-0.02c-0.01-0.21-0.06-0.41-0.16-0.57
					c-0.04-0.06-0.09-0.11-0.14-0.16l-2.96-2.55c-0.15-0.13-0.24-0.31-0.27-0.51l8.43,4.87c0.03,0.2,0.12,0.38,0.27,0.51l2.95,2.54
					C142.025,281.853,142.155,282.143,142.165,282.433z"/>
				<path id="XMLID_504_" style="opacity:0.15;" d="M138.635,308.933c-0.17,0.35-0.04,0.8,0.31,1l0.6,0.35l-0.01,0.01l-9.02-5.23
					c-0.34-0.19-0.48-0.64-0.3-0.99l2.42-4.88l1.78,1.02h0.01c0.12,0.08,0.28,0.08,0.45,0l2.53-1.14l4.72,2.73
					c-0.01,0.1-0.04,0.19-0.08,0.27L138.635,308.933z"/>
				<path id="XMLID_523_" style="opacity:0.15;" d="M153.205,311.043c0.01,0,0.01,0.01,0.01,0.02l-6.55-3.78l1.22-1.83
					c0.22-0.33,0.72-0.56,1.11-0.55c0.88,0.02,1.8-0.07,2.76-0.28c0.39-0.09,0.73,0.14,0.77,0.54l0.55,5.56
					c0.01,0.07,0.02,0.13,0.05,0.19C153.145,310.963,153.165,311.003,153.205,311.043z"/>
				<path id="XMLID_884_" style="opacity:0.65;" d="M166.325,277.953c0,6.18-4.34,13.68-9.69,16.77c-0.39,0.22-0.77,0.42-1.15,0.59
					c-0.38,0.16-0.75,0.3-1.11,0.41c-1.39,0.42-2.66,0.43-3.74,0.06c-0.17-0.06-0.34-0.13-0.5-0.2c-0.15-0.07-0.3-0.15-0.44-0.24
					c-0.02-0.01-0.04-0.02-0.07-0.04c-0.12-0.08-0.23-0.16-0.35-0.25c-0.02-0.01-0.05-0.03-0.08-0.06
					c-0.27-0.22-0.52-0.47-0.75-0.76c-0.26-0.32-0.48-0.67-0.67-1.07c-0.07-0.13-0.13-0.27-0.19-0.42
					c-0.07-0.16-0.13-0.34-0.18-0.52c-0.06-0.16-0.11-0.32-0.14-0.49c-0.05-0.18-0.09-0.36-0.12-0.54
					c-0.02-0.07-0.03-0.14-0.04-0.21c-0.03-0.16-0.06-0.33-0.07-0.5v-0.01c0.38-0.17,0.78-0.37,1.18-0.61
					c5.34-3.09,9.68-10.6,9.68-16.77c0-0.12,0-0.23-0.01-0.35c0-0.12,0-0.23-0.01-0.34v-0.07c-0.01-0.2-0.02-0.39-0.05-0.58
					c0.01,0,0.01,0,0.01,0c0.17-0.07,0.34-0.14,0.51-0.2c0.2-0.08,0.39-0.14,0.58-0.2c0.17-0.05,0.34-0.09,0.51-0.13
					c0.18-0.04,0.35-0.07,0.52-0.1c0.24-0.04,0.49-0.07,0.72-0.08c0.71-0.03,1.36,0.06,1.97,0.26c0.23,0.08,0.45,0.17,0.66,0.29
					c0.43,0.21,0.82,0.5,1.16,0.85c0.13,0.13,0.25,0.26,0.37,0.41c0.23,0.29,0.45,0.62,0.63,0.99
					C166.015,274.923,166.325,276.313,166.325,277.953z"/>
				<path id="XMLID_493_" style="opacity:0.15;" d="M178.805,266.843c-0.12-0.04-0.26-0.04-0.41,0.03l-5.1,2.3
					c-0.36,0.16-0.73-0.02-0.85-0.4c-0.29-0.93-0.68-1.78-1.13-2.52c-0.21-0.34-0.26-0.89-0.08-1.24l0.98-1.97L178.805,266.843z"/>
				<path id="XMLID_501_" style="opacity:0.15;" d="M170.585,255.003c-0.05-0.03-0.1-0.05-0.16-0.06c-0.24-0.05-0.49,0.01-0.67,0.17
					c-0.05,0.05-0.09,0.09-0.13,0.15l-4.24,6.37c-0.08,0.11-0.18,0.21-0.31,0.3l-2.37-1.37l-2.22-1.28l-0.29-2.92
					c-0.02-0.19-0.1-0.33-0.23-0.39c-0.01-0.01-0.02-0.02-0.03-0.02l-1.75-1.02l3.01-4.53c0.09-0.14,0.22-0.23,0.37-0.28
					c0.04-0.03,0.09-0.04,0.14-0.04c0.17-0.04,0.35-0.02,0.5,0.07l3.7,2.14L170.585,255.003z"/>
				<path id="XMLID_506_" style="opacity:0.15;" d="M140.425,287.963c-0.11,0.16-0.25,0.3-0.38,0.4l-5.24,3.69
					c-0.14,0.1-0.27,0.25-0.36,0.42l-8.421-4.861c0.05-0.08,0.111-0.169,0.171-0.249c0.06-0.07,0.12-0.13,0.19-0.18l5.23-3.68
					c0.14-0.1,0.27-0.25,0.39-0.41L140.425,287.963z"/>
				<path id="XMLID_527_" style="fill:#27DEBF;" d="M159.965,255.963v0.01c-0.01-0.01-0.02-0.02-0.03-0.02L159.965,255.963z"/>
				<path id="XMLID_508_" style="opacity:0.35;" d="M159.965,255.963v0.01c-0.01-0.01-0.02-0.02-0.03-0.02L159.965,255.963z"/>
				<path id="XMLID_288_" style="fill:#27DEBF;" d="M179.051,273.912v-6.619c0-0.395-0.292-0.584-0.652-0.421l-5.102,2.3
					c-0.36,0.162-0.731-0.017-0.85-0.393c-0.297-0.938-0.679-1.782-1.138-2.53c-0.206-0.337-0.253-0.882-0.077-1.236l3.401-6.857
					c0.176-0.354,0.041-0.801-0.302-0.999l-3.691-2.131c-0.342-0.198-0.797-0.091-1.016,0.238l-4.238,6.374
					c-0.219,0.329-0.715,0.561-1.11,0.551c-0.877-0.023-1.799,0.068-2.759,0.28c-0.386,0.085-0.726-0.146-0.765-0.539l-0.559-5.568
					c-0.039-0.393-0.349-0.552-0.691-0.354l-5.732,3.309c-0.342,0.198-0.648,0.677-0.684,1.07l-0.574,6.378
					c-0.035,0.393-0.306,0.923-0.596,1.191c-1.116,1.027-2.181,2.159-3.184,3.371c-0.252,0.304-0.753,0.449-1.126,0.319l-3.68-1.285
					c-0.373-0.13-0.835,0.042-1.033,0.384l-4.214,7.299c-0.197,0.342-0.115,0.828,0.184,1.086l2.953,2.544
					c0.299,0.258,0.424,0.765,0.287,1.135c-0.547,1.474-0.995,2.963-1.327,4.443c-0.086,0.385-0.41,0.884-0.733,1.111l-5.236,3.686
					c-0.323,0.227-0.585,0.732-0.585,1.127v6.619c0,0.395,0.292,0.584,0.652,0.421l5.102-2.3c0.36-0.162,0.731,0.017,0.85,0.393
					c0.297,0.938,0.679,1.782,1.137,2.53c0.206,0.337,0.253,0.883,0.077,1.237l-3.401,6.857c-0.176,0.354-0.04,0.801,0.302,0.998
					l3.69,2.13c0.342,0.198,0.797,0.091,1.016-0.238l4.238-6.373c0.219-0.329,0.715-0.561,1.11-0.551
					c0.877,0.023,1.799-0.068,2.76-0.28c0.386-0.085,0.726,0.146,0.765,0.539l0.559,5.569c0.039,0.393,0.349,0.552,0.691,0.354
					l5.732-3.31c0.342-0.198,0.648-0.677,0.684-1.07l0.574-6.378c0.035-0.393,0.305-0.923,0.596-1.191
					c1.115-1.027,2.181-2.159,3.184-3.37c0.252-0.304,0.754-0.45,1.127-0.319l3.68,1.285c0.373,0.13,0.835-0.042,1.033-0.384
					l4.214-7.299c0.197-0.342,0.115-0.828-0.184-1.086l-2.953-2.544c-0.299-0.258-0.424-0.765-0.287-1.135
					c0.547-1.475,0.995-2.963,1.327-4.443c0.087-0.385,0.41-0.884,0.733-1.111l5.236-3.686
					C178.79,274.812,179.051,274.307,179.051,273.912z M156.637,294.725c-5.348,3.088-9.684,0.585-9.684-5.591
					c0-6.175,4.336-13.685,9.684-16.773c5.348-3.087,9.684-0.585,9.684,5.591C166.32,284.128,161.985,291.638,156.637,294.725z"/>
				<path id="XMLID_1844_" style="opacity:0.45;" d="M179.051,273.912v-6.619c0-0.395-0.292-0.584-0.652-0.421l-5.102,2.3
					c-0.36,0.162-0.731-0.017-0.85-0.393c-0.297-0.938-0.679-1.782-1.138-2.53c-0.206-0.337-0.253-0.882-0.077-1.236l3.401-6.857
					c0.176-0.354,0.041-0.801-0.302-0.999l-3.691-2.131c-0.342-0.198-0.797-0.091-1.016,0.238l-4.238,6.374
					c-0.219,0.329-0.715,0.561-1.11,0.551c-0.877-0.023-1.799,0.068-2.759,0.28c-0.386,0.085-0.726-0.146-0.765-0.539l-0.559-5.568
					c-0.039-0.393-0.349-0.552-0.691-0.354l-5.732,3.309c-0.342,0.198-0.648,0.677-0.684,1.07l-0.574,6.378
					c-0.035,0.393-0.306,0.923-0.596,1.191c-1.116,1.027-2.181,2.159-3.184,3.371c-0.252,0.304-0.753,0.449-1.126,0.319l-3.68-1.285
					c-0.373-0.13-0.835,0.042-1.033,0.384l-4.214,7.299c-0.197,0.342-0.115,0.828,0.184,1.086l2.953,2.544
					c0.299,0.258,0.424,0.765,0.287,1.135c-0.547,1.474-0.995,2.963-1.327,4.443c-0.086,0.385-0.41,0.884-0.733,1.111l-5.236,3.686
					c-0.323,0.227-0.585,0.732-0.585,1.127v6.619c0,0.395,0.292,0.584,0.652,0.421l5.102-2.3c0.36-0.162,0.731,0.017,0.85,0.393
					c0.297,0.938,0.679,1.782,1.137,2.53c0.206,0.337,0.253,0.883,0.077,1.237l-3.401,6.857c-0.176,0.354-0.04,0.801,0.302,0.998
					l3.69,2.13c0.342,0.198,0.797,0.091,1.016-0.238l4.238-6.373c0.219-0.329,0.715-0.561,1.11-0.551
					c0.877,0.023,1.799-0.068,2.76-0.28c0.386-0.085,0.726,0.146,0.765,0.539l0.559,5.569c0.039,0.393,0.349,0.552,0.691,0.354
					l5.732-3.31c0.342-0.198,0.648-0.677,0.684-1.07l0.574-6.378c0.035-0.393,0.305-0.923,0.596-1.191
					c1.115-1.027,2.181-2.159,3.184-3.37c0.252-0.304,0.754-0.45,1.127-0.319l3.68,1.285c0.373,0.13,0.835-0.042,1.033-0.384
					l4.214-7.299c0.197-0.342,0.115-0.828-0.184-1.086l-2.953-2.544c-0.299-0.258-0.424-0.765-0.287-1.135
					c0.547-1.475,0.995-2.963,1.327-4.443c0.087-0.385,0.41-0.884,0.733-1.111l5.236-3.686
					C178.79,274.812,179.051,274.307,179.051,273.912z M156.637,294.725c-5.348,3.088-9.684,0.585-9.684-5.591
					c0-6.175,4.336-13.685,9.684-16.773c5.348-3.087,9.684-0.585,9.684,5.591C166.32,284.128,161.985,291.638,156.637,294.725z"/>
				<path id="XMLID_499_" style="fill:#27DEBF;" d="M137.092,266.585l-1.975-1.15c-0.249,0.019-0.483,0.152-0.614,0.38l-1.267,2.198
					l0,0l-0.502,0.87l-1.83,3.17l-0.65,1.13c-0.1,0.16-0.13,0.37-0.1,0.56l0.01,0.01l8.43,4.87c-0.04-0.2-0.02-0.41,0.08-0.58
					l1.2-2.08l1.49-2.58l1.53-2.64c0.13-0.23,0.38-0.38,0.65-0.4L137.092,266.585z"/>
				<path id="XMLID_340_" style="opacity:0.35;" d="M137.092,266.585l-1.975-1.15c-0.249,0.019-0.483,0.152-0.614,0.38l-1.267,2.198
					l0,0l-0.502,0.87l-1.83,3.17l-0.65,1.13c-0.1,0.16-0.13,0.37-0.1,0.56l0.01,0.01l8.43,4.87c-0.04-0.2-0.02-0.41,0.08-0.58
					l1.2-2.08l1.49-2.58l1.53-2.64c0.13-0.23,0.38-0.38,0.65-0.4L137.092,266.585z"/>
				<path id="XMLID_482_" style="opacity:0.15;" d="M139.825,266.763c-0.21,0.07-0.45,0.09-0.65,0.02l-0.288-0.101l0,0l-0.011-0.004
					l-3.371-1.185c-0.002,0-0.003,0-0.005,0l-0.066-0.023c-0.104-0.037-0.211-0.043-0.316-0.035l0.117,0.068h0l1.858,1.082
					l0.635,0.37l0,0l5.817,3.388h0.01c0.13-0.03,0.25-0.02,0.37,0.02l3.68,1.28c0.2,0.07,0.449,0.068,0.66-0.012L139.825,266.763z"
					/>
				<path id="XMLID_528_" style="fill:#27DEBF;" d="M159.935,255.953c-0.12-0.05-0.27-0.04-0.43,0.05l-2.34,1.35l-2.31,1.34
					l-1.08,0.62c-0.25,0.14-0.48,0.43-0.59,0.73l-8.42-4.86v-0.01c0.09-0.2,0.21-0.39,0.36-0.54c0.07-0.07,0.14-0.13,0.22-0.18
					c0.03-0.02,0.05-0.03,0.08-0.05l1.24-0.71l0.02-0.01l0.45-0.26l3.94-2.28c0.1-0.06,0.2-0.08,0.29-0.08
					c0.05,0,0.09,0.01,0.14,0.03c0.01,0,0.02,0,0.03,0.01l2.76,1.59l0.08,0.04l3.81,2.2L159.935,255.953z"/>
				<path id="XMLID_376_" style="opacity:0.35;" d="M159.935,255.953c-0.12-0.05-0.27-0.04-0.43,0.05l-2.34,1.35l-2.31,1.34
					l-1.08,0.62c-0.25,0.14-0.48,0.43-0.59,0.73l-8.42-4.86v-0.01c0.09-0.2,0.21-0.39,0.36-0.54c0.07-0.07,0.14-0.13,0.22-0.18
					c0.03-0.02,0.05-0.03,0.08-0.05l1.24-0.71l0.02-0.01l0.45-0.26l3.94-2.28c0.1-0.06,0.2-0.08,0.29-0.08
					c0.05,0,0.09,0.01,0.14,0.03c0.01,0,0.02,0,0.03,0.01l2.76,1.59l0.08,0.04l3.81,2.2L159.935,255.953z"/>
			</g>
			<g id="XMLID_388_">
				<path id="XMLID_312_" style="fill:#27DEBF;" d="M203.318,278.162c-0.52-1.15-1.39-1.79-2.46-1.95
					c-0.04-0.01-0.08-0.01-0.12-0.01c-0.04-0.01-0.07-0.01-0.11-0.02h-0.12c-0.01,0-0.01,0-0.02,0c-0.69-0.04-1.44,0.12-2.22,0.47
					c0.02,0.27,0.03,0.55,0.03,0.85c0,4.02-2.81,8.9-6.29,10.9c-0.25,0.15-0.5,0.28-0.74,0.39c0.06,0.6,0.2,1.15,0.43,1.64
					c0.59,1.32,1.66,1.97,2.95,1.99h0.09c0.07,0,0.14-0.01,0.2-0.01l0.33-0.03c0.09-0.01,0.18-0.03,0.28-0.05
					c0.04-0.01,0.08-0.01,0.12-0.03c0.06-0.01,0.12-0.02,0.17-0.04c1.31-0.33,2.73-1.22,4.08-2.64
					C203.128,286.232,204.648,281.102,203.318,278.162z"/>
				<path id="XMLID_279_" style="opacity:0.65;" d="M199.918,289.622c-1.35,1.42-2.77,2.31-4.08,2.64
					c-0.05,0.02-0.11,0.03-0.17,0.04c-0.04,0.02-0.08,0.02-0.12,0.03c-0.1,0.02-0.19,0.04-0.28,0.05l-0.33,0.03
					c-0.06,0-0.13,0.01-0.2,0.01h-0.09c-1.29-0.02-2.36-0.67-2.95-1.99c-0.23-0.49-0.37-1.04-0.43-1.64
					c0.24-0.11,0.49-0.24,0.74-0.39c3.48-2,6.29-6.88,6.29-10.9c0-0.3-0.01-0.58-0.03-0.85c0.78-0.35,1.53-0.51,2.22-0.47
					c0.01,0,0.01,0,0.02,0h0.12c0.04,0.01,0.07,0.01,0.11,0.02c0.04,0,0.08,0,0.12,0.01c1.07,0.16,1.94,0.8,2.46,1.95
					C204.648,281.102,203.128,286.232,199.918,289.622z"/>
				<path id="XMLID_316_" style="fill:#27DEBF;" d="M200.788,298.512l-1.61-2.45c-0.11-0.17-0.41-0.16-0.67,0.02
					c-0.31,0.22-0.63,0.42-0.94,0.6l3.25,1.88C200.808,298.542,200.798,298.532,200.788,298.512z"/>
				<path id="XMLID_322_" style="fill:#27DEBF;" d="M208.258,278.172c0,0.41-0.02,0.83-0.06,1.26c-0.02,0.23,0.18,0.42,0.45,0.44
					l2.69,0.15c0.08,0,0.14,0.02,0.2,0.05C211.348,279.962,209.788,279.052,208.258,278.172z"/>
				<path id="XMLID_473_" style="fill:#27DEBF;" d="M190.598,297.802c-0.49-0.2-0.95-0.46-1.37-0.8c-0.17-0.14-0.47-0.09-0.7,0.12
					l-3.2,2.93c-0.12,0.1-0.24,0.16-0.35,0.16c0.9,0.51,2.12,1.22,3.14,1.81c1.02,0.6,1.84,1.08,1.94,1.13
					c-0.1-0.06-0.15-0.17-0.13-0.31l0.99-4.48C190.978,298.132,190.818,297.882,190.598,297.802z"/>
				<path id="XMLID_276_" style="fill:#27DEBF;" d="M184.538,300.002c0.02,0.01,0.04,0.02,0.06,0.03c0.08,0.05,0.15,0.09,0.19,0.11
					c0.02,0.01,0.04,0.02,0.05,0.03c-0.03-0.03-0.06-0.05-0.07-0.09l-1.43-3.15c-0.04-0.1-0.04-0.24,0-0.38
					c0.03-0.13,0.1-0.27,0.18-0.37l3-3.63c0.13-0.16,0.23-0.37,0.27-0.55c0.02-0.09,0.03-0.18,0.02-0.25
					c-0.07-0.82-0.07-1.69,0.01-2.59c0.02-0.22-0.18-0.42-0.45-0.43l-2.69-0.16c-0.27-0.01-0.44-0.21-0.37-0.45l1.48-4.98
					c0.08-0.24,0.37-0.48,0.67-0.56l2.94-0.71c0.3-0.07,0.63-0.32,0.75-0.55c0.47-0.94,1-1.86,1.58-2.75
					c0.04-0.06,0.08-0.14,0.11-0.22c0.02-0.04,0.04-0.09,0.05-0.14c0.01-0.05,0.02-0.1,0.03-0.14c0.02-0.11,0.01-0.2-0.01-0.28
					l-0.96-3.24c-0.03-0.1-0.01-0.24,0.04-0.37c0.02-0.07,0.05-0.14,0.09-0.2c0.04-0.07,0.09-0.13,0.14-0.19l3.44-3.63
					c0.15-0.16,0.33-0.22,0.46-0.16c0.01,0,0.02,0,0.03,0.01c0.03,0.01,0.07,0.04,0.09,0.07l1.6,2.45c0.11,0.17,0.41,0.16,0.67-0.02
					c0.65-0.44,1.3-0.82,1.94-1.12c0.29-0.14,0.6-0.43,0.69-0.66l1.69-4.56c0.01-0.04,0.04-0.08,0.07-0.12
					c0.09-0.13,0.26-0.25,0.43-0.31c0.03-0.01,0.05-0.02,0.08-0.02c0.04-0.01,0.07-0.02,0.11-0.02l3.13-0.32h0.07
					c0.04,0,0.08,0.01,0.12,0.02c0.04,0,0.08,0.02,0.11,0.04c0.11,0.06,0.17,0.17,0.13,0.31l-0.98,4.49
					c-0.05,0.23,0.1,0.47,0.32,0.56c0.49,0.19,0.95,0.45,1.37,0.79c0.17,0.14,0.47,0.09,0.7-0.12l3.2-2.92
					c0.17-0.15,0.34-0.2,0.46-0.14c-0.37-0.22-6.28-3.64-6.31-3.66c-0.04-0.02-0.08-0.03-0.12-0.03c-0.34-0.19-0.73-0.42-1.14-0.66
					h-0.01c-0.41-0.23-0.83-0.48-1.25-0.72c-0.17-0.1-0.34-0.2-0.5-0.29c-0.41-0.24-0.8-0.47-1.13-0.66
					c-0.06-0.04-0.12-0.07-0.18-0.11c-0.51-0.29-0.85-0.49-0.88-0.5c-0.07-0.05-0.18-0.07-0.31-0.06l-3.13,0.31
					c-0.05,0-0.09,0.01-0.14,0.03c-0.05,0.01-0.1,0.03-0.14,0.05c-0.05,0.02-0.1,0.05-0.14,0.08c-0.04,0.03-0.07,0.06-0.1,0.09
					c-0.08,0.07-0.13,0.15-0.16,0.23l-1.7,4.55c-0.01,0.04-0.03,0.07-0.06,0.11c-0.03,0.05-0.07,0.11-0.12,0.16
					c-0.05,0.06-0.1,0.11-0.16,0.16c-0.01,0.01-0.02,0.02-0.03,0.03c-0.05,0.04-0.09,0.07-0.14,0.1c-0.06,0.04-0.12,0.08-0.18,0.11
					c-0.33,0.15-0.65,0.33-0.99,0.52l-3.29-1.9c-0.01-0.01-0.03-0.02-0.05-0.02c-0.07-0.04-0.17-0.02-0.27,0.03
					c-0.07,0.02-0.13,0.07-0.19,0.13v0.01l-2.44,2.57l-1,1.06c-0.06,0.06-0.11,0.13-0.15,0.2c-0.04,0.07-0.07,0.15-0.1,0.23
					c-0.03,0.1-0.04,0.18-0.03,0.26c0,0.02,0.01,0.04,0.01,0.06l0.96,3.24c0.02,0.08,0.02,0.18,0.01,0.29c0,0.03-0.01,0.06-0.02,0.1
					c0,0.01-0.01,0.03-0.01,0.04c0,0.02-0.01,0.03-0.02,0.05c-0.03,0.11-0.08,0.22-0.14,0.31c-0.58,0.88-1.11,1.81-1.58,2.74
					c-0.11,0.24-0.45,0.49-0.74,0.56l-2.95,0.71c-0.3,0.07-0.6,0.32-0.66,0.55l-1.49,4.99c-0.04,0.14,0.01,0.28,0.12,0.36
					c0.04,0.03,1.31,0.77,2.27,1.32c0.59,0.34,1.06,0.61,1.06,0.61c0,0.46,0.02,0.91,0.06,1.34v0.04c0,0.06-0.01,0.13-0.03,0.2
					c-0.01,0.08-0.04,0.15-0.07,0.23c-0.06,0.11-0.12,0.23-0.19,0.32l-3.01,3.64c-0.08,0.1-0.15,0.24-0.18,0.37
					c-0.02,0.07-0.03,0.14-0.03,0.2s0.01,0.12,0.03,0.17l1.43,3.15c0.02,0.05,0.05,0.08,0.09,0.11l0.01,0.01
					c0.07,0.04,0.41,0.23,0.9,0.52c0.13,0.07,0.28,0.15,0.43,0.25c1.13,0.65,2.74,1.58,3.83,2.21c0.15,0.08,0.29,0.17,0.42,0.24
					c0.08,0.05,0.16,0.1,0.23,0.14"/>
				<path id="XMLID_264_" style="opacity:0.55;" d="M184.538,300.002c0.02,0.01,0.04,0.02,0.06,0.03c0.08,0.05,0.15,0.09,0.19,0.11
					c0.02,0.01,0.04,0.02,0.05,0.03c-0.03-0.03-0.06-0.05-0.07-0.09l-1.43-3.15c-0.04-0.1-0.04-0.24,0-0.38
					c0.03-0.13,0.1-0.27,0.18-0.37l3-3.63c0.13-0.16,0.23-0.37,0.27-0.55c0.02-0.09,0.03-0.18,0.02-0.25
					c-0.07-0.82-0.07-1.69,0.01-2.59c0.02-0.22-0.18-0.42-0.45-0.43l-2.69-0.16c-0.27-0.01-0.44-0.21-0.37-0.45l1.48-4.98
					c0.08-0.24,0.37-0.48,0.67-0.56l2.94-0.71c0.3-0.07,0.63-0.32,0.75-0.55c0.47-0.94,1-1.86,1.58-2.75
					c0.04-0.06,0.08-0.14,0.11-0.22c0.02-0.04,0.04-0.09,0.05-0.14c0.01-0.05,0.02-0.1,0.03-0.14c0.02-0.11,0.01-0.2-0.01-0.28
					l-0.96-3.24c-0.03-0.1-0.01-0.24,0.04-0.37c0.02-0.07,0.05-0.14,0.09-0.2c0.04-0.07,0.09-0.13,0.14-0.19l3.44-3.63
					c0.15-0.16,0.33-0.22,0.46-0.16c0.01,0,0.02,0,0.03,0.01c0.03,0.01,0.07,0.04,0.09,0.07l1.6,2.45c0.11,0.17,0.41,0.16,0.67-0.02
					c0.65-0.44,1.3-0.82,1.94-1.12c0.29-0.14,0.6-0.43,0.69-0.66l1.69-4.56c0.01-0.04,0.04-0.08,0.07-0.12
					c0.09-0.13,0.26-0.25,0.43-0.31c0.03-0.01,0.05-0.02,0.08-0.02c0.04-0.01,0.07-0.02,0.11-0.02l3.13-0.32h0.07
					c0.04,0,0.08,0.01,0.12,0.02c0.04,0,0.08,0.02,0.11,0.04c0.11,0.06,0.17,0.17,0.13,0.31l-0.98,4.49
					c-0.05,0.23,0.1,0.47,0.32,0.56c0.49,0.19,0.95,0.45,1.37,0.79c0.17,0.14,0.47,0.09,0.7-0.12l3.2-2.92
					c0.17-0.15,0.34-0.2,0.46-0.14c-0.37-0.22-6.28-3.64-6.31-3.66c-0.04-0.02-0.08-0.03-0.12-0.03c-0.34-0.19-0.73-0.42-1.14-0.66
					h-0.01c-0.41-0.23-0.83-0.48-1.25-0.72c-0.17-0.1-0.34-0.2-0.5-0.29c-0.41-0.24-0.8-0.47-1.13-0.66
					c-0.06-0.04-0.12-0.07-0.18-0.11c-0.51-0.29-0.85-0.49-0.88-0.5c-0.07-0.05-0.18-0.07-0.31-0.06l-3.13,0.31
					c-0.05,0-0.09,0.01-0.14,0.03c-0.05,0.01-0.1,0.03-0.14,0.05c-0.05,0.02-0.1,0.05-0.14,0.08c-0.04,0.03-0.07,0.06-0.1,0.09
					c-0.08,0.07-0.13,0.15-0.16,0.23l-1.7,4.55c-0.01,0.04-0.03,0.07-0.06,0.11c-0.03,0.05-0.07,0.11-0.12,0.16
					c-0.05,0.06-0.1,0.11-0.16,0.16c-0.01,0.01-0.02,0.02-0.03,0.03c-0.05,0.04-0.09,0.07-0.14,0.1c-0.06,0.04-0.12,0.08-0.18,0.11
					c-0.33,0.15-0.65,0.33-0.99,0.52l-3.29-1.9c-0.01-0.01-0.03-0.02-0.05-0.02c-0.07-0.04-0.17-0.02-0.27,0.03
					c-0.07,0.02-0.13,0.07-0.19,0.13v0.01l-2.44,2.57l-1,1.06c-0.06,0.06-0.11,0.13-0.15,0.2c-0.04,0.07-0.07,0.15-0.1,0.23
					c-0.03,0.1-0.04,0.18-0.03,0.26c0,0.02,0.01,0.04,0.01,0.06l0.96,3.24c0.02,0.08,0.02,0.18,0.01,0.29c0,0.03-0.01,0.06-0.02,0.1
					c0,0.01-0.01,0.03-0.01,0.04c0,0.02-0.01,0.03-0.02,0.05c-0.03,0.11-0.08,0.22-0.14,0.31c-0.58,0.88-1.11,1.81-1.58,2.74
					c-0.11,0.24-0.45,0.49-0.74,0.56l-2.95,0.71c-0.3,0.07-0.6,0.32-0.66,0.55l-1.49,4.99c-0.04,0.14,0.01,0.28,0.12,0.36
					c0.04,0.03,1.31,0.77,2.27,1.32c0.59,0.34,1.06,0.61,1.06,0.61c0,0.46,0.02,0.91,0.06,1.34v0.04c0,0.06-0.01,0.13-0.03,0.2
					c-0.01,0.08-0.04,0.15-0.07,0.23c-0.06,0.11-0.12,0.23-0.19,0.32l-3.01,3.64c-0.08,0.1-0.15,0.24-0.18,0.37
					c-0.02,0.07-0.03,0.14-0.03,0.2s0.01,0.12,0.03,0.17l1.43,3.15c0.02,0.05,0.05,0.08,0.09,0.11l0.01,0.01
					c0.07,0.04,0.41,0.23,0.9,0.52c0.13,0.07,0.28,0.15,0.43,0.25c1.13,0.65,2.74,1.58,3.83,2.21c0.15,0.08,0.29,0.17,0.42,0.24
					c0.08,0.05,0.16,0.1,0.23,0.14"/>
				<path id="XMLID_304_" style="opacity:0.65;" d="M200.788,298.512l-1.61-2.45c-0.11-0.17-0.41-0.16-0.67,0.02
					c-0.31,0.22-0.63,0.42-0.94,0.6l3.25,1.88C200.808,298.542,200.798,298.532,200.788,298.512z"/>
				<path id="XMLID_307_" style="opacity:0.55;" d="M208.258,278.172c0,0.41-0.02,0.83-0.06,1.26c-0.02,0.23,0.18,0.42,0.45,0.44
					l2.69,0.15c0.08,0,0.14,0.02,0.2,0.05C211.348,279.962,209.788,279.052,208.258,278.172z"/>
				<path id="XMLID_457_" style="opacity:0.65;" d="M190.598,297.802c-0.49-0.2-0.95-0.46-1.37-0.8c-0.17-0.14-0.47-0.09-0.7,0.12
					l-3.2,2.93c-0.12,0.1-0.24,0.16-0.35,0.16c0.9,0.51,2.12,1.22,3.14,1.81c1.02,0.6,1.84,1.08,1.94,1.13
					c-0.1-0.06-0.15-0.17-0.13-0.31l0.99-4.48C190.978,298.132,190.818,297.882,190.598,297.802z"/>
				<path id="XMLID_478_" style="opacity:0.2;" d="M186.718,292.212c-0.05,0.12-0.12,0.24-0.2,0.34l-3,3.63
					c-0.08,0.1-0.15,0.24-0.18,0.37l-6.33-3.66c0.03-0.13,0.1-0.27,0.18-0.37l3.01-3.64c0.07-0.09,0.13-0.21,0.19-0.32
					L186.718,292.212z"/>
				<path id="XMLID_341_" style="opacity:0.05;" d="M186.808,291.752c0.02,0.13-0.02,0.29-0.09,0.46l-6.33-3.65
					c0.03-0.08,0.06-0.15,0.07-0.23c0.02-0.07,0.03-0.14,0.03-0.2v-0.04c-0.04-0.43-0.06-0.87-0.06-1.33l2.97,1.71
					c0.07,0.06,0.16,0.09,0.28,0.1l2.69,0.16c0.27,0.01,0.47,0.21,0.45,0.43C186.738,290.062,186.738,290.932,186.808,291.752z"/>
				<path id="XMLID_375_" style="opacity:0.1;" d="M188.798,281.682c-0.12,0.09-0.26,0.16-0.4,0.19l-2.94,0.71
					c-0.21,0.06-0.42,0.19-0.54,0.35l-6.34-3.65c0.08-0.11,0.2-0.21,0.33-0.28c0.07-0.03,0.15-0.06,0.22-0.08l2.95-0.71
					c0.13-0.03,0.26-0.1,0.38-0.18c0.01-0.01,0.01-0.01,0.01-0.01L188.798,281.682z"/>
				<path id="XMLID_462_" style="opacity:0.35;" d="M183.308,288.122c-0.04,0.14,0,0.26,0.09,0.35l-2.97-1.71
					c0,0-0.01-0.01-0.02-0.01l-3.26-1.89c-0.03-0.02-0.05-0.03-0.05-0.04c-0.11-0.08-0.16-0.21-0.12-0.36l1.49-4.99
					c0.02-0.06,0.05-0.13,0.1-0.19l6.35,3.65c-0.06,0.07-0.11,0.14-0.13,0.21L183.308,288.122z"/>
				<path id="XMLID_265_" style="opacity:0.1;" d="M183.648,270.562l6.33,3.63c-0.05,0.13-0.06,0.26-0.03,0.36l0.96,3.24
					c0.03,0.11,0.02,0.27-0.02,0.42l-6.33-3.66c0-0.01,0.01-0.03,0.01-0.04c0.01-0.04,0.01-0.07,0.02-0.1
					c0.01-0.11,0.01-0.21-0.01-0.29l-0.96-3.24c-0.03-0.09-0.02-0.2,0.02-0.32"/>
				<path id="XMLID_311_" style="opacity:0.1;" d="M200.998,265.942c-0.08,0.07-0.14,0.15-0.17,0.23l-1.69,4.56
					c-0.05,0.14-0.18,0.29-0.34,0.42l-6.33-3.66c0.12-0.1,0.22-0.21,0.28-0.32c0.03-0.04,0.05-0.07,0.06-0.11l1.7-4.55
					c0.03-0.08,0.08-0.16,0.16-0.23L200.998,265.942z"/>
				<path id="XMLID_471_" style="fill:#27DEBF;" d="M183.308,288.122c-0.04,0.14,0,0.26,0.09,0.35l-2.97-1.71
					c0,0-0.01-0.01-0.02-0.01l-3.26-1.89c-0.03-0.02-0.05-0.03-0.05-0.04c-0.11-0.08-0.16-0.21-0.12-0.36l1.49-4.99
					c0.02-0.06,0.05-0.13,0.1-0.19l6.35,3.65c-0.06,0.07-0.11,0.14-0.13,0.21L183.308,288.122z"/>
				<path id="XMLID_277_" style="opacity:0.35;" d="M183.308,288.122c-0.04,0.14,0,0.26,0.09,0.35l-2.97-1.71
					c0,0-0.01-0.01-0.02-0.01l-3.26-1.89c-0.03-0.02-0.05-0.03-0.05-0.04c-0.11-0.08-0.16-0.21-0.12-0.36l1.49-4.99
					c0.02-0.06,0.05-0.13,0.1-0.19l6.35,3.65c-0.06,0.07-0.11,0.14-0.13,0.21L183.308,288.122z"/>
				<path id="XMLID_444_" style="opacity:0.35;" d="M178.578,279.282c-0.02,0.01-0.03,0.03-0.04,0.04c0.01-0.02,0.02-0.03,0.03-0.04
					H178.578z"/>
				<path id="XMLID_339_" style="fill:#27DEBF;" d="M194.158,270.002l-0.01,0.01c-0.13-0.08-0.33-0.02-0.49,0.15l-3.44,3.63
					c-0.1,0.11-0.19,0.26-0.24,0.4l-6.33-3.63c0.02-0.08,0.05-0.15,0.09-0.23c0.04-0.07,0.09-0.14,0.15-0.2l3.44-3.63
					c0.06-0.06,0.13-0.11,0.19-0.14c0.1-0.05,0.2-0.07,0.27-0.03c0.02,0,0.03,0,0.05,0.01v0.01l3.29,1.9L194.158,270.002z"/>
				<path id="XMLID_329_" style="opacity:0.35;" d="M194.158,270.002l-0.01,0.01c-0.13-0.08-0.33-0.02-0.49,0.15l-3.44,3.63
					c-0.1,0.11-0.19,0.26-0.24,0.4l-6.33-3.63c0.02-0.08,0.05-0.15,0.09-0.23c0.04-0.07,0.09-0.14,0.15-0.2l3.44-3.63
					c0.06-0.06,0.13-0.11,0.19-0.14c0.1-0.05,0.2-0.07,0.27-0.03c0.02,0,0.03,0,0.05,0.01v0.01l3.29,1.9L194.158,270.002z"/>
				<path id="XMLID_295_" style="fill:#27DEBF;" d="M204.928,265.432c-0.08-0.04-0.17-0.06-0.28-0.05l-3.13,0.32
					c-0.19,0.01-0.38,0.11-0.52,0.24l-6.33-3.66c0.03-0.03,0.06-0.06,0.1-0.09c0.04-0.02,0.09-0.05,0.14-0.08
					c0.04-0.02,0.09-0.04,0.14-0.05c0.04-0.02,0.09-0.02,0.14-0.03l3.13-0.31c0.13-0.01,0.24,0.01,0.31,0.06
					C198.658,261.792,204.838,265.372,204.928,265.432z"/>
				<path id="XMLID_289_" style="opacity:0.35;" d="M204.928,265.432c-0.08-0.04-0.17-0.06-0.28-0.05l-3.13,0.32
					c-0.19,0.01-0.38,0.11-0.52,0.24l-6.33-3.66c0.03-0.03,0.06-0.06,0.1-0.09c0.04-0.02,0.09-0.05,0.14-0.08
					c0.04-0.02,0.09-0.04,0.14-0.05c0.04-0.02,0.09-0.02,0.14-0.03l3.13-0.31c0.13-0.01,0.24,0.01,0.31,0.06
					C198.658,261.792,204.838,265.372,204.928,265.432z"/>
				<path id="XMLID_476_" style="opacity:0.35;" d="M180.248,286.652c0.11,0.06,0.18,0.1,0.18,0.1v0.01c0,0-0.01-0.01-0.02-0.01
					L180.248,286.652z"/>
				<path id="XMLID_321_" style="fill:#27DEBF;" d="M211.538,280.072c-0.06-0.03-0.12-0.05-0.2-0.05l-2.69-0.15
					c-0.27-0.02-0.47-0.21-0.45-0.44c0.04-0.43,0.06-0.85,0.06-1.26c0.01-0.45-0.01-0.9-0.05-1.33c-0.02-0.22,0.1-0.57,0.29-0.79
					l3-3.64c0.19-0.22,0.27-0.56,0.18-0.74l-1.42-3.15c-0.02-0.05-0.05-0.08-0.09-0.1c-0.01-0.01-0.01-0.01-0.02-0.01
					c-0.12-0.06-0.29-0.01-0.46,0.14l-3.2,2.92c-0.23,0.21-0.53,0.26-0.7,0.12c-0.42-0.34-0.88-0.6-1.37-0.79
					c-0.22-0.09-0.37-0.33-0.32-0.56l0.98-4.49c0.04-0.14-0.02-0.25-0.13-0.31c-0.08-0.05-0.18-0.07-0.3-0.06l-3.13,0.32
					c-0.29,0.02-0.6,0.24-0.69,0.47l-1.69,4.56c-0.09,0.23-0.4,0.52-0.69,0.66c-0.64,0.3-1.29,0.68-1.94,1.12
					c-0.26,0.18-0.56,0.19-0.67,0.02l-1.6-2.45c-0.12-0.17-0.38-0.14-0.58,0.08l-3.44,3.63c-0.21,0.22-0.33,0.56-0.27,0.76
					l0.96,3.24c0.06,0.2-0.02,0.55-0.18,0.78c-0.58,0.89-1.11,1.81-1.58,2.75c-0.12,0.23-0.45,0.48-0.75,0.55l-2.94,0.71
					c-0.3,0.08-0.59,0.32-0.67,0.56l-1.48,4.98c-0.07,0.24,0.1,0.44,0.37,0.45l2.69,0.16c0.27,0.01,0.47,0.21,0.45,0.43
					c-0.08,0.9-0.08,1.77-0.01,2.59c0.03,0.22-0.1,0.57-0.29,0.8l-3,3.63c-0.18,0.22-0.26,0.56-0.18,0.75l1.4,3.13
					c0.02,0.04,0.04,0.06,0.06,0.07c0.01,0.02,0.02,0.03,0.04,0.04l0.02,0.01c0.04,0.02,0.08,0.03,0.12,0.03
					c0.11,0,0.23-0.05,0.35-0.16l3.2-2.93c0.23-0.21,0.53-0.26,0.7-0.12c0.42,0.34,0.88,0.6,1.37,0.8c0.22,0.08,0.38,0.33,0.32,0.56
					l-0.99,4.48c-0.02,0.14,0.03,0.25,0.13,0.31c0.01,0,0.01,0,0.01,0.01c0.08,0.04,0.18,0.06,0.3,0.05l3.13-0.31
					c0.29-0.03,0.6-0.25,0.69-0.48l1.7-4.55c0.08-0.24,0.39-0.53,0.68-0.67c0.33-0.15,0.67-0.33,1-0.52
					c0.31-0.18,0.63-0.38,0.94-0.6c0.26-0.18,0.56-0.19,0.67-0.02l1.61,2.45c0.02,0.04,0.04,0.06,0.07,0.08
					c0.13,0.08,0.34,0.02,0.5-0.16l3.45-3.63c0.2-0.21,0.32-0.56,0.26-0.75l-0.96-3.24c-0.06-0.21,0.03-0.56,0.18-0.79
					c0.59-0.89,1.11-1.81,1.58-2.74c0.12-0.24,0.45-0.49,0.75-0.56l2.94-0.71c0.3-0.07,0.6-0.32,0.67-0.55l1.48-4.99
					c0.05-0.16-0.02-0.31-0.16-0.39C211.548,280.072,211.538,280.072,211.538,280.072z M199.918,289.622
					c-1.35,1.42-2.77,2.31-4.08,2.64c-0.05,0.02-0.11,0.03-0.17,0.04c-0.04,0.02-0.08,0.02-0.12,0.03c-0.1,0.02-0.19,0.04-0.28,0.05
					l-0.33,0.03c-0.06,0-0.13,0.01-0.2,0.01h-0.09c-1.29-0.02-2.36-0.67-2.95-1.99c-0.23-0.49-0.37-1.04-0.43-1.64
					c-0.04-0.29-0.06-0.6-0.05-0.91c0.02-2.84,1.48-6.36,3.88-8.91c0.78-0.82,1.58-1.46,2.38-1.92c0.26-0.16,0.53-0.29,0.79-0.4
					c0.78-0.35,1.53-0.51,2.22-0.47c0.01,0,0.01,0,0.02,0h0.12c0.04,0.01,0.07,0.01,0.11,0.02c0.04,0,0.08,0,0.12,0.01
					c1.07,0.16,1.94,0.8,2.46,1.95C204.648,281.102,203.128,286.232,199.918,289.622z"/>
				<path id="XMLID_274_" style="opacity:0.45;" d="M211.538,280.072c-0.06-0.03-0.12-0.05-0.2-0.05l-2.69-0.15
					c-0.27-0.02-0.47-0.21-0.45-0.44c0.04-0.43,0.06-0.85,0.06-1.26c0.01-0.45-0.01-0.9-0.05-1.33c-0.02-0.22,0.1-0.57,0.29-0.79
					l3-3.64c0.19-0.22,0.27-0.56,0.18-0.74l-1.42-3.15c-0.02-0.05-0.05-0.08-0.09-0.1c-0.01-0.01-0.01-0.01-0.02-0.01
					c-0.12-0.06-0.29-0.01-0.46,0.14l-3.2,2.92c-0.23,0.21-0.53,0.26-0.7,0.12c-0.42-0.34-0.88-0.6-1.37-0.79
					c-0.22-0.09-0.37-0.33-0.32-0.56l0.98-4.49c0.04-0.14-0.02-0.25-0.13-0.31c-0.08-0.05-0.18-0.07-0.3-0.06l-3.13,0.32
					c-0.29,0.02-0.6,0.24-0.69,0.47l-1.69,4.56c-0.09,0.23-0.4,0.52-0.69,0.66c-0.64,0.3-1.29,0.68-1.94,1.12
					c-0.26,0.18-0.56,0.19-0.67,0.02l-1.6-2.45c-0.12-0.17-0.38-0.14-0.58,0.08l-3.44,3.63c-0.21,0.22-0.33,0.56-0.27,0.76
					l0.96,3.24c0.06,0.2-0.02,0.55-0.18,0.78c-0.58,0.89-1.11,1.81-1.58,2.75c-0.12,0.23-0.45,0.48-0.75,0.55l-2.94,0.71
					c-0.3,0.08-0.59,0.32-0.67,0.56l-1.48,4.98c-0.07,0.24,0.1,0.44,0.37,0.45l2.69,0.16c0.27,0.01,0.47,0.21,0.45,0.43
					c-0.08,0.9-0.08,1.77-0.01,2.59c0.03,0.22-0.1,0.57-0.29,0.8l-3,3.63c-0.18,0.22-0.26,0.56-0.18,0.75l1.4,3.13
					c0.02,0.04,0.04,0.06,0.06,0.07c0.01,0.02,0.02,0.03,0.04,0.04l0.02,0.01c0.04,0.02,0.08,0.03,0.12,0.03
					c0.11,0,0.23-0.05,0.35-0.16l3.2-2.93c0.23-0.21,0.53-0.26,0.7-0.12c0.42,0.34,0.88,0.6,1.37,0.8c0.22,0.08,0.38,0.33,0.32,0.56
					l-0.99,4.48c-0.02,0.14,0.03,0.25,0.13,0.31c0.01,0,0.01,0,0.01,0.01c0.08,0.04,0.18,0.06,0.3,0.05l3.13-0.31
					c0.29-0.03,0.6-0.25,0.69-0.48l1.7-4.55c0.08-0.24,0.39-0.53,0.68-0.67c0.33-0.15,0.67-0.33,1-0.52
					c0.31-0.18,0.63-0.38,0.94-0.6c0.26-0.18,0.56-0.19,0.67-0.02l1.61,2.45c0.02,0.04,0.04,0.06,0.07,0.08
					c0.13,0.08,0.34,0.02,0.5-0.16l3.45-3.63c0.2-0.21,0.32-0.56,0.26-0.75l-0.96-3.24c-0.06-0.21,0.03-0.56,0.18-0.79
					c0.59-0.89,1.11-1.81,1.58-2.74c0.12-0.24,0.45-0.49,0.75-0.56l2.94-0.71c0.3-0.07,0.6-0.32,0.67-0.55l1.48-4.99
					c0.05-0.16-0.02-0.31-0.16-0.39C211.548,280.072,211.538,280.072,211.538,280.072z M199.918,289.622
					c-1.35,1.42-2.77,2.31-4.08,2.64c-0.05,0.02-0.11,0.03-0.17,0.04c-0.04,0.02-0.08,0.02-0.12,0.03c-0.1,0.02-0.19,0.04-0.28,0.05
					l-0.33,0.03c-0.06,0-0.13,0.01-0.2,0.01h-0.09c-1.29-0.02-2.36-0.67-2.95-1.99c-0.23-0.49-0.37-1.04-0.43-1.64
					c-0.04-0.29-0.06-0.6-0.05-0.91c0.02-2.84,1.48-6.36,3.88-8.91c0.78-0.82,1.58-1.46,2.38-1.92c0.26-0.16,0.53-0.29,0.79-0.4
					c0.78-0.35,1.53-0.51,2.22-0.47c0.01,0,0.01,0,0.02,0h0.12c0.04,0.01,0.07,0.01,0.11,0.02c0.04,0,0.08,0,0.12,0.01
					c1.07,0.16,1.94,0.8,2.46,1.95C204.648,281.102,203.128,286.232,199.918,289.622z"/>
			</g>
		</g>
	</g>
	<g id="Code">
		<path id="XMLID_1621_" style="opacity:0.7;fill:#37474F;" d="M266.384,218.991l93.158-53.794c1.196-0.69,2.165-0.131,2.165,1.25
			l0,84.115c0,1.381-0.969,3.06-2.165,3.75l-93.158,53.794c-1.196,0.69-2.165,0.131-2.165-1.25v-84.115
			C264.219,221.36,265.189,219.681,266.384,218.991z"/>
		<path id="XMLID_1423_" style="opacity:0.7;fill:#263238;" d="M264.856,220.609l-4.065-2.347c-0.394,0.68-0.638,1.446-0.638,2.138
			v84.114c0,0.68,0.24,1.16,0.62,1.39c0.4,0.24,3.67,2.09,4.04,2.33c-0.37-0.24-0.59-0.72-0.59-1.38V222.74
			C264.224,222.051,264.465,221.287,264.856,220.609z"/>
		<path id="XMLID_1205_" style="opacity:0.5;fill:#455A64;" d="M360.986,164.997c-0.77-0.47-3.61-2.08-3.96-2.29
			c-0.39-0.23-0.94-0.21-1.55,0.14l-93.153,53.803c-0.599,0.344-1.14,0.935-1.532,1.612l4.065,2.347
			c0.391-0.68,0.932-1.273,1.528-1.619l93.163-53.793C360.096,164.877,360.606,164.827,360.986,164.997z"/>
		<g id="XMLID_1038_">
			<path id="XMLID_1875_" style="fill:#FAFAFA;" d="M279.595,254.997c0-0.648,0.099-1.201,0.296-1.659
				c0.197-0.458,0.479-0.976,0.849-1.554l14.8-23.979c0.105-0.141,0.191-0.24,0.256-0.3c0.065-0.058,0.125-0.103,0.178-0.133
				c0.237-0.137,0.435-0.128,0.593,0.023c0.158,0.151,0.236,0.41,0.236,0.774v8.324c0,0.689-0.144,1.32-0.434,1.891
				c-0.29,0.573-0.566,1.078-0.829,1.512l-6.946,11.181l6.946,3.159c0.263,0.133,0.539,0.317,0.829,0.555
				c0.289,0.238,0.434,0.702,0.434,1.391v8.324c0,0.364-0.078,0.713-0.236,1.048c-0.158,0.335-0.355,0.569-0.593,0.706
				c-0.053,0.031-0.112,0.057-0.178,0.072c-0.065,0.018-0.151,0.018-0.256-0.004l-14.8-6.889c-0.369-0.152-0.651-0.342-0.849-0.573
				c-0.197-0.229-0.296-0.67-0.296-1.318V254.997z"/>
			<path id="XMLID_1877_" style="fill:#FAFAFA;" d="M316.377,210.367c0.131-0.52,0.329-1.05,0.592-1.587
				c0.264-0.537,0.645-0.949,1.145-1.238l4.895-2.825c0.236-0.137,0.439-0.122,0.611,0.042c0.171,0.164,0.257,0.428,0.257,0.793
				c0,0.162-0.027,0.359-0.079,0.592l-13.3,56.836c-0.106,0.466-0.29,0.978-0.553,1.534c-0.264,0.557-0.658,0.988-1.184,1.292
				l-4.815,2.779c-0.236,0.137-0.441,0.123-0.612-0.041c-0.171-0.166-0.256-0.43-0.256-0.794c0-0.163,0.026-0.36,0.078-0.593
				L316.377,210.367z"/>
			<path id="XMLID_1879_" style="fill:#FAFAFA;" d="M346.332,219.019c0,0.648-0.099,1.203-0.296,1.66
				c-0.197,0.459-0.48,0.976-0.849,1.553l-14.8,23.979c-0.105,0.143-0.191,0.242-0.257,0.3c-0.065,0.06-0.125,0.103-0.177,0.133
				c-0.237,0.137-0.435,0.13-0.593-0.022c-0.158-0.152-0.236-0.41-0.236-0.774v-8.324c0-0.689,0.145-1.319,0.434-1.892
				c0.289-0.572,0.565-1.075,0.829-1.512l6.945-11.18l-6.945-3.16c-0.264-0.131-0.54-0.316-0.829-0.555
				c-0.289-0.236-0.434-0.7-0.434-1.39v-8.324c0-0.364,0.078-0.714,0.236-1.048s0.355-0.57,0.593-0.707
				c0.052-0.03,0.111-0.054,0.177-0.072c0.065-0.016,0.151-0.016,0.257,0.004l14.8,6.889c0.368,0.152,0.651,0.344,0.849,0.574
				c0.197,0.23,0.296,0.67,0.296,1.317V219.019z"/>
		</g>
	</g>
	<g id="Image">
		<g id="XMLID_505_">
			<path id="XMLID_897_" style="opacity:0.7;fill:#27DEBF;" d="M254.126,226.928c-0.38-0.17-0.89-0.12-1.44,0.2l-93.163,53.793
				c-1.19,0.69-2.16,2.37-2.16,3.75v84.114c0,0.66,0.22,1.14,0.59,1.38c-0.37-0.24-3.64-2.09-4.04-2.33
				c-0.38-0.23-0.62-0.71-0.62-1.39v-84.113c0-1.38,0.97-3.06,2.17-3.75l93.153-53.803c0.61-0.35,1.16-0.37,1.55-0.14
				C250.516,224.848,253.356,226.458,254.126,226.928z"/>
			<path id="XMLID_895_" style="opacity:0.7;fill:#27DEBF;" d="M159.524,280.922l93.158-53.794c1.196-0.69,2.165-0.131,2.165,1.25
				v84.115c0,1.381-0.969,3.06-2.165,3.75l-93.158,53.794c-1.196,0.69-2.165,0.131-2.165-1.25v-84.115
				C157.359,283.291,158.329,281.612,159.524,280.922z"/>
			<path id="XMLID_889_" style="opacity:0.15;" d="M157.996,282.539l-4.065-2.347c-0.394,0.68-0.638,1.446-0.638,2.138v84.113
				c0,0.68,0.24,1.16,0.62,1.39c0.4,0.24,3.67,2.09,4.04,2.33c-0.37-0.24-0.59-0.72-0.59-1.38V284.67
				C157.363,283.981,157.605,283.217,157.996,282.539z"/>
			<path id="XMLID_885_" style="opacity:0.5;fill:#FFFFFF;" d="M254.126,226.928c-0.77-0.47-3.61-2.08-3.96-2.29
				c-0.39-0.23-0.94-0.21-1.55,0.14l-93.153,53.803c-0.599,0.344-1.14,0.935-1.532,1.612l4.065,2.347
				c0.391-0.68,0.932-1.274,1.528-1.619l93.163-53.793C253.236,226.808,253.746,226.758,254.126,226.928z"/>
		</g>
		<path id="XMLID_963_" style="opacity:0.95;fill:#FAFAFA;" d="M218.338,308.822l7.365,10.35l-33.277-30.285l-35.067,59.406v20.494
			c0,1.381,0.969,1.94,2.165,1.25l93.158-53.794c1.196-0.69,2.165-2.369,2.165-3.75v-11.26l-24.817-17.865L218.338,308.822z"/>
		<path id="XMLID_906_" style="opacity:0.95;fill:#FAFAFA;" d="M222.351,259.022c4.344-2.508,7.865-0.474,7.865,4.542
			c0,5.016-3.521,11.116-7.865,13.624c-4.344,2.508-7.866,0.474-7.866-4.542C214.485,267.63,218.007,261.53,222.351,259.022z"/>
		<g id="XMLID_973_">
			<path style="fill:#27DEBF;" d="M253.649,227.832c0.193,0,0.198,0.49,0.198,0.546v84.115c0,1.024-0.778,2.372-1.665,2.884
				l-93.158,53.794c-0.253,0.146-0.411,0.162-0.467,0.162c-0.193,0-0.198-0.49-0.198-0.546v-84.115c0-1.024,0.778-2.372,1.665-2.884
				l93.158-53.794C253.435,227.848,253.593,227.832,253.649,227.832 M253.649,226.832c-0.291,0-0.62,0.095-0.967,0.296
				l-93.158,53.794c-1.196,0.69-2.165,2.369-2.165,3.75v84.115c0,0.979,0.488,1.546,1.198,1.546c0.291,0,0.619-0.095,0.967-0.296
				l93.158-53.794c1.196-0.69,2.165-2.369,2.165-3.75v-84.115C254.848,227.398,254.36,226.832,253.649,226.832L253.649,226.832z"/>
		</g>
	</g>
</g>
<g id="Wrench">
	<g id="XMLID_1874_">
		<path id="XMLID_1888_" style="fill:#263238;" d="M203.521,409.058c-1.741,0.99-5.004,0.95-6.043,2.142l-0.001,4.285l19.903-2.907
			l7.526,4.412l-2.861,5.978l-20.095-1.342l-0.001,4.285c0.424,0.299,0.869,0.585,1.347,0.865
			c8.407,4.929,22.141,4.989,30.678,0.136c4.307-2.449,6.457-5.675,6.458-8.905l0.001,0.001l0-4.271l-1.186,0.189
			c-0.046-0.078-0.084-0.158-0.133-0.236l75.312-43.481c7.626,1.607,16.499,0.675,22.672-2.835c3.201-1.82,5.21-4.065,6.044-6.427
			l0.001-4.285l-19.904,7.193l-7.526-4.412l2.861-5.978l20.096-2.943l0.001-4.285c0,0-23.489-1.568-32.025,3.285
			c-2.508,1.426-4.271,3.117-5.319,4.917l-1.138-0.412l-0.001,4.252l0.008-0.01c-0.034,1.515,0.398,3.033,1.309,4.475
			l-75.312,43.481C218.567,404.615,209.694,405.548,203.521,409.058z"/>
		<polygon id="XMLID_1886_" style="fill:#37474F;" points="314.426,370.208 314.427,365.923 239.115,409.404 239.114,413.689 		"/>
		<path id="XMLID_1884_" style="fill:#455A64;" d="M301.506,358.456l-75.312,43.481c-7.626-1.607-16.499-0.674-22.672,2.835
			c-3.201,1.82-5.21,4.065-6.044,6.427l19.903-2.907l7.526,4.412l-2.861,5.978l-20.096,2.943c0.424,0.298,0.869,0.585,1.347,0.865
			c8.407,4.929,22.141,4.989,30.678,0.136c6.258-3.558,7.962-8.756,5.141-13.222l75.312-43.481
			c7.626,1.607,16.499,0.674,22.672-2.835c3.201-1.82,5.21-4.065,6.044-6.427l-19.903,2.907l-7.526-4.412l2.861-5.978l20.096-2.943
			c-0.424-0.298-0.869-0.585-1.347-0.865c-8.407-4.929-22.141-4.989-30.678-0.136C300.389,348.792,298.684,353.99,301.506,358.456z"
			/>
		<polygon id="XMLID_1882_" style="fill:#37474F;" points="317.315,356.094 315.714,355.155 318.575,349.177 338.671,346.234 
			338.67,350.519 318.574,353.463 		"/>
	</g>
</g>
<g id="Character">
	<g id="XMLID_2123_">
		<g id="XMLID_1039_">
			<polygon id="XMLID_2158_" style="fill:#FFA8A7;" points="403.777,105.616 405.623,115.815 415.827,116.317 413.468,102.78 			"/>
			<path id="XMLID_2150_" style="fill:#263238;" d="M396.251,90.776c0,0-2.159-4.154,0.83-8.794
				c3.522-5.466,10.719-8.173,18.687-5.991c3.949,1.082,8.96,5.179,9.457,14.711c0.305,5.856-15.992,10.084-15.641,14.095
				L396.251,90.776z"/>
			<path id="XMLID_2148_" style="fill:#F28F8F;" d="M395.888,92.996c0,0-2.233,3.54-1.924,3.903
				c0.309,0.362,1.785,0.724,1.785,0.724L395.888,92.996z"/>
			<path id="XMLID_2146_" style="fill:#FFA8A7;" d="M400.771,82.603c-2.219,1.208-5.05,3.213-5.259,11.007
				c-0.229,8.547,1.02,11.092,2.201,12.179c0.798,0.734,5.005,0.648,7.092-0.05c2.612-0.873,8.491-3.319,11.068-7.756
				c3.031-5.221,3.531-12.103-0.154-14.717C410.532,79.586,402.649,81.58,400.771,82.603z"/>
			<path id="XMLID_2133_" style="fill:#263238;" d="M398.612,82.562c0,0-3.585,7.761,4.097,12.218c0,0,1.306-3.051,3.922-2.24
				c2.633,0.816,2.469,4.307,0.451,6.133c-2.02,1.826-3.139,0.667-3.139,0.667s-0.06,2.823,2.621,5.431
				c0,0,8.083,4.248,14.839-3.297c6.13-6.846,5.061-18.849-4.257-21.729C407.828,76.866,398.612,82.562,398.612,82.562z"/>
			<path id="XMLID_1127_" style="fill:#263238;" d="M436.742,113.92L436.742,113.92c-5.716,0.377-10.655-3.952-11.031-9.668
				L424.541,86.5l0,0c5.716-0.377,10.655,3.952,11.031,9.668L436.742,113.92z"/>
		</g>
		<g id="XMLID_2113_">
			<g id="XMLID_2127_">
				<path id="XMLID_2154_" style="fill:#FFA8A7;" d="M427.953,255.662l-0.275-8.828l7.323-1.265l0.421,7.532
					c0.351,1.755,1.594,2.329,1.903,3.316c0.309,0.987-4.978,11.098-7.961,13.33c-2.982,2.232-7.818-0.63-8.291-1.704
					c-0.474-1.074,3.99-0.277,4.712-1.814C426.76,264.153,427.953,255.662,427.953,255.662z"/>
			</g>
			<g id="XMLID_2116_">
				<path id="XMLID_2117_" style="fill:#263238;" d="M436.12,254.566c-0.966,0.805-1.7,2.827-3.021,5.595
					c-1.321,2.768-3.215,7.266-5.271,7.907c-2.394,0.747-7.094-0.621-4.096-0.847c0.655-0.049,1.8-0.3,2.108-0.993
					c0.233-0.526,0.287-0.768,0.287-0.768s-1.076,0.387-3.194,0.296c-1.839-0.08-3.2,0.344-4.162,1.794
					c-0.496,0.747,0.303,1.997,0.303,1.997c0.91,1.131,2.63,2.243,6.568,2.547c3.792,0.292,6.278-0.285,7.692-2.961
					c1.716-3.248,4.754-6.696,5.976-8.52C440.789,258.405,438.408,255.155,436.12,254.566z"/>
			</g>
			<g id="XMLID_2114_">
				<path id="XMLID_2115_" style="fill:#FFA8A7;" d="M426.024,265.622c-0.239,0.607-1.968,0.788-2.841,0.904
					c-0.872,0.116-1.277,0.918,0.126,1.369C425.732,268.155,426.923,265.575,426.024,265.622z"/>
			</g>
		</g>
		<path id="XMLID_1056_" style="fill:#FFA8A7;" d="M421.846,110.059c3.088-0.611,6.427,2.871,8.078,5.674
			c1.651,2.803,9.848,17.412,10.76,19.87c0.912,2.458,1.184,3.003-1.952,6.216c-3.136,3.213-13.433,12.151-13.433,12.151
			l-3.435-7.061l8.777-9.931l-9.766-14.191L421.846,110.059z"/>
		<path id="XMLID_1868_" style="fill:#27DEBF;" d="M420.207,109.962c0,0,3.289-0.748,5.023,0.352s3.85,3.301,5.856,6.861
			c2.006,3.561,6.877,12.485,6.877,12.485s-2.013,4.802-8.455,6.164l-6.42-8.227L420.207,109.962z"/>
		<path id="XMLID_1867_" style="opacity:0.1;" d="M420.207,109.962c0,0,3.289-0.748,5.023,0.352s3.85,3.301,5.856,6.861
			c2.006,3.561,6.877,12.485,6.877,12.485s-2.013,4.802-8.455,6.164l-6.42-8.227L420.207,109.962z"/>
		<g id="XMLID_2102_">
			<path id="XMLID_2160_" style="fill:#37474F;" d="M435.63,249.451c0,0-4.438,1.953-8.236,1.194c0,0-3.385-12.174-6.977-26.595
				c-3.646-14.659-7.519-31.64-8.29-40.494c-1.042-12.033,1.563-28.363,3.31-37.434c0.792-4.156,1.41-6.792,1.41-6.792l5.621-0.618
				c1.465,2.072,3.038,4.015,4.525,6.011c2.398,3.179,4.579,6.467,5.837,10.547c0.011,0.033,0.022,0.076,0.033,0.108
				c3.885,12.814-3.049,37.64-3.678,47.514c0,0,3.45,4.264,4.275,11.719C433.915,218.658,435.63,249.451,435.63,249.451z"/>
		</g>
		<g id="XMLID_2118_">
			<g id="XMLID_6419_">
				<path id="XMLID_2180_" style="fill:#FFA8A7;" d="M410.163,264.444l-0.275-8.829l7.323-1.265l0.421,7.532
					c0.351,1.755,1.594,2.329,1.903,3.316c0.309,0.987-4.978,11.098-7.961,13.33c-2.982,2.232-7.817-0.63-8.291-1.704
					c-0.474-1.074,3.99-0.277,4.712-1.814C408.97,272.934,410.163,264.444,410.163,264.444z"/>
			</g>
			<g id="XMLID_2122_">
				<path id="XMLID_2176_" style="fill:#263238;" d="M418.275,263.347c-0.966,0.805-1.7,2.827-3.021,5.595
					c-1.321,2.768-3.215,7.266-5.271,7.907c-2.394,0.747-7.094-0.621-4.096-0.847c0.655-0.049,1.8-0.3,2.108-0.993
					c0.233-0.526,0.287-0.768,0.287-0.768s-1.076,0.387-3.194,0.295c-1.839-0.08-3.2,0.344-4.162,1.795
					c-0.496,0.747,0.303,1.997,0.303,1.997c0.91,1.131,2.63,2.243,6.568,2.547c3.792,0.292,6.278-0.284,7.692-2.961
					c1.716-3.248,4.754-6.696,5.976-8.52C422.943,267.187,420.563,263.937,418.275,263.347z"/>
			</g>
			<g id="XMLID_2119_">
				<path id="XMLID_2170_" style="fill:#FFA8A7;" d="M408.234,274.403c-0.239,0.607-1.968,0.788-2.841,0.904
					c-0.872,0.116-1.277,0.918,0.126,1.369C407.942,276.936,409.134,274.357,408.234,274.403z"/>
			</g>
		</g>
		<path id="XMLID_2152_" style="fill:#455A64;" d="M432.83,155.269c-0.792,4.774-2.951,10.048-10.449,14.203
			c-1.335,14.583-4.395,27.962-4.959,36.968c0,0,3.103,4.677,3.342,9.852c0.043,0.977-0.098,3.885-0.347,7.758
			c-0.781,12.283-2.582,34.19-2.582,34.19s-4.427,1.953-8.236,1.193c0,0-7.988-53.447-10.283-70.908
			c-2.714-20.645-0.841-38.092-0.841-38.092l16.961-4.312l11.556-1.4C429.391,147.901,431.572,151.189,432.83,155.269z"/>
		<path id="XMLID_1866_" style="fill:#27DEBF;" d="M424.667,138.711c0.039-0.078,0.859-5.884,1.718-11.126
			c1.369-8.36-4.341-17.5-4.539-17.526c-2.056-0.262-7.094,0.088-7.094,0.088s-0.108,1.389-2.983,1.948
			c-3.963,0.771-6.887-0.378-6.887-0.378c-0.542,0.056-6.811,0.492-5.42,0.395c0.073,0.512-5.131,12.489-5.131,12.489
			c-1.769,2.472-2.046,5.819-0.204,8.779c0.91,1.462,1.998,2.445,2.869,3.068c0.453,3.268,0.851,6.154,0.851,6.154l-0.07,16.414
			c0,0,7.576,1.939,19.925-0.425c10.453-2.001,13.937-7.076,13.937-7.076L424.667,138.711z"/>
		<path id="XMLID_1865_" style="fill:#FFA8A7;" d="M399.462,112.112c-6.661,0.358-6.315,0.831-14.754,6.105
			c-7.882,4.927-15.41,9.156-15.41,9.156l-21.25-6.24c-0.867-0.267-1.778-1.401-2.248-2.177c-1.26-2.082-2.777-2.804-4.382-4.381
			c-1.256-1.235-1.557-2.276-1.965-2.122c-0.524,0.198-1.38,1.054-0.947,2.551c0.218,0.754,0.791,1.731,1.545,2.951
			c0,0-2.366-0.922-4.951-3.094c-3.504-2.945-6.086-4.337-6.223,1.503c-0.086,3.659,2.915,7.818,10.939,10.691
			c2.312,0.827,5.907,1.371,8.93,2.617l-0.001-0.007c7.812,3.425,19.41,8.281,21.85,8.044c1.754-0.171,25.636-11.185,25.636-11.185
			S401.459,120.562,399.462,112.112z"/>
		<g id="XMLID_2203_">
			<path id="XMLID_1202_" style="fill:#27DEBF;" d="M401.032,112.001c0,0-4.877-0.732-10.022,1.942
				c-5.371,2.79-16.03,9.803-16.03,9.803s0.889,9.057,5.004,10.888l17.862-7.502C397.846,127.132,404.239,119.93,401.032,112.001z"
				/>
			<path id="XMLID_1864_" style="opacity:0.1;" d="M401.032,112.001c0,0-4.877-0.732-10.022,1.942
				c-5.371,2.79-16.03,9.803-16.03,9.803s0.889,9.057,5.004,10.888l17.862-7.502C397.846,127.132,404.239,119.93,401.032,112.001z"
				/>
		</g>
	</g>
</g>
</svg>
