<svg xmlns="http://www.w3.org/2000/svg" xmlns:xlink="http://www.w3.org/1999/xlink" width="500" zoomAndPan="magnify" viewBox="0 0 375 374.999991" height="500" preserveAspectRatio="xMidYMid meet" version="1.0"><defs><clipPath id="255de1e9f6"><path d="M 213 78.148438 L 330 78.148438 L 330 296.757812 L 213 296.757812 Z M 213 78.148438 " clip-rule="nonzero"/></clipPath><clipPath id="4dacaf8fd5"><path d="M 37.5 78.148438 L 253.433594 78.148438 L 253.433594 296.757812 L 37.5 296.757812 Z M 37.5 78.148438 " clip-rule="nonzero"/></clipPath></defs><g clip-path="url(#255de1e9f6)"><path fill="#f58634" d="M 322.570312 296.808594 L 242.5 252.871094 C 223.402344 242.386719 213.144531 222.339844 213.898438 201.953125 L 213.898438 176.710938 C 211.640625 155.085938 222.242188 133.203125 242.5 122.089844 L 322.570312 78.148438 C 337.367188 105.109375 327.503906 138.960938 300.546875 153.757812 L 239.09375 187.480469 L 300.546875 221.207031 C 327.503906 236 337.367188 269.851562 322.570312 296.808594 Z M 322.570312 296.808594 " fill-opacity="1" fill-rule="nonzero"/></g><g clip-path="url(#4dacaf8fd5)"><path fill="#f58634" d="M 104.414062 229.082031 L 37.902344 295.578125 C 37.6875 295.800781 37.636719 296.050781 37.753906 296.335938 C 37.871094 296.621094 38.085938 296.765625 38.394531 296.769531 C 72.589844 296.140625 102.914062 285.671875 129.371094 265.363281 C 136.253906 260.09375 144.949219 252.113281 155.445312 241.429688 C 170.761719 225.855469 186.46875 210.121094 202.566406 194.222656 C 203.757812 193.027344 203.511719 192.425781 201.828125 192.414062 C 184.75 192.273438 167.113281 192.296875 148.921875 192.484375 C 140.015625 192.578125 133.097656 191.621094 128.175781 189.609375 C 99.277344 177.84375 98.59375 138.683594 127.195312 125.761719 C 131.296875 123.902344 137.050781 122.976562 144.449219 122.988281 C 164.007812 123.023438 184.097656 123.105469 204.722656 123.234375 C 212.15625 123.28125 218.429688 122.40625 223.539062 120.605469 C 241.300781 114.34375 252.804688 98.261719 253.4375 79.324219 C 253.441406 79.070312 253.355469 78.851562 253.179688 78.667969 C 253.007812 78.484375 252.792969 78.394531 252.542969 78.394531 C 216.148438 78.605469 182.457031 78.582031 151.464844 78.324219 C 137.761719 78.207031 127.371094 79.109375 120.285156 81.027344 C 77.9375 92.441406 51.929688 136.964844 64.554688 179.332031 C 70.917969 200.691406 84.15625 216.914062 104.277344 227.996094 C 104.371094 228.046875 104.445312 228.121094 104.507812 228.207031 C 104.566406 228.296875 104.605469 228.398438 104.617188 228.503906 C 104.632812 228.609375 104.621094 228.714844 104.585938 228.816406 C 104.550781 228.917969 104.492188 229.007812 104.414062 229.082031 Z M 104.414062 229.082031 " fill-opacity="1" fill-rule="nonzero"/></g></svg>