<svg xmlns="http://www.w3.org/2000/svg" xmlns:xlink="http://www.w3.org/1999/xlink" width="1500" zoomAndPan="magnify" viewBox="0 0 1125 318.749988" height="425" preserveAspectRatio="xMidYMid meet" version="1.0"><defs><g/><clipPath id="f74b9a0b5c"><path d="M 444.894531 31.851562 L 553.832031 31.851562 L 553.832031 142.25 L 444.894531 142.25 Z M 444.894531 31.851562 " clip-rule="nonzero"/></clipPath><clipPath id="3d75e0dff7"><path d="M 616.171875 151 L 645 151 L 645 227 L 616.171875 227 Z M 616.171875 151 " clip-rule="nonzero"/></clipPath><clipPath id="272261ad7c"><path d="M 650 148.40625 L 710 148.40625 L 710 258.808594 L 650 258.808594 Z M 650 148.40625 " clip-rule="nonzero"/></clipPath><clipPath id="56ea39a22c"><path d="M 256 31.851562 L 392 31.851562 L 392 286.542969 L 256 286.542969 Z M 256 31.851562 " clip-rule="nonzero"/></clipPath><clipPath id="d448158c48"><path d="M 51.695312 32 L 303.273438 32 L 303.273438 286.542969 L 51.695312 286.542969 Z M 51.695312 32 " clip-rule="nonzero"/></clipPath></defs><g clip-path="url(#f74b9a0b5c)"><path fill="#f58634" d="M 478.550781 108.359375 L 444.835938 142.070312 C 444.726562 142.179688 444.699219 142.308594 444.761719 142.453125 C 444.820312 142.597656 444.929688 142.671875 445.085938 142.671875 C 462.417969 142.351562 477.792969 137.046875 491.203125 126.753906 C 494.691406 124.078125 499.097656 120.035156 504.421875 114.617188 C 512.183594 106.726562 520.144531 98.75 528.304688 90.6875 C 528.910156 90.085938 528.785156 89.777344 527.933594 89.773438 C 519.273438 89.703125 510.335938 89.714844 501.113281 89.808594 C 496.597656 89.855469 493.09375 89.371094 490.597656 88.351562 C 475.949219 82.386719 475.601562 62.535156 490.101562 55.984375 C 492.179688 55.042969 495.097656 54.574219 498.847656 54.578125 C 508.761719 54.597656 518.945312 54.640625 529.398438 54.703125 C 533.167969 54.726562 536.347656 54.285156 538.9375 53.371094 C 547.941406 50.199219 553.773438 42.046875 554.09375 32.445312 C 554.097656 32.316406 554.054688 32.207031 553.964844 32.113281 C 553.875 32.019531 553.769531 31.972656 553.640625 31.972656 C 535.191406 32.082031 518.113281 32.070312 502.402344 31.9375 C 495.457031 31.878906 490.1875 32.335938 486.597656 33.308594 C 465.128906 39.09375 451.945312 61.664062 458.347656 83.140625 C 461.570312 93.96875 468.28125 102.191406 478.480469 107.808594 C 478.582031 107.867188 478.640625 107.953125 478.65625 108.066406 C 478.671875 108.183594 478.636719 108.28125 478.550781 108.359375 Z M 478.550781 108.359375 " fill-opacity="1" fill-rule="nonzero"/></g><g fill="#f58634" fill-opacity="1"><g transform="translate(511.409923, 143.267431)"><g><path d="M 23.25 0 C 19.289062 0 15.820312 -0.8125 12.84375 -2.4375 C 9.875 -4.070312 7.570312 -6.300781 5.9375 -9.125 C 4.3125 -11.957031 3.5 -15.125 3.5 -18.625 C 3.5 -22.175781 4.3125 -25.347656 5.9375 -28.140625 C 7.570312 -30.941406 9.875 -33.15625 12.84375 -34.78125 C 15.820312 -36.414062 19.289062 -37.234375 23.25 -37.234375 L 83.203125 -37.234375 L 83.203125 -23.953125 L 72.546875 -13.28125 L 83.203125 -13.28125 L 83.203125 0 Z M 18.09375 -18.625 C 18.09375 -17.101562 18.601562 -15.832031 19.625 -14.8125 C 20.644531 -13.789062 21.851562 -13.28125 23.25 -13.28125 L 51.828125 -13.28125 L 62.5 -23.953125 L 23.25 -23.953125 C 21.851562 -23.953125 20.644531 -23.441406 19.625 -22.421875 C 18.601562 -21.398438 18.09375 -20.132812 18.09375 -18.625 Z M 18.09375 -18.625 "/></g></g></g><g fill="#f58634" fill-opacity="1"><g transform="translate(598.102204, 143.267431)"><g><path d="M 23.25 0 C 19.289062 0 15.820312 -0.8125 12.84375 -2.4375 C 9.875 -4.070312 7.570312 -6.300781 5.9375 -9.125 C 4.3125 -11.957031 3.5 -15.125 3.5 -18.625 C 3.5 -22.175781 4.3125 -25.347656 5.9375 -28.140625 C 7.570312 -30.941406 9.875 -33.15625 12.84375 -34.78125 C 15.820312 -36.414062 19.289062 -37.234375 23.25 -37.234375 L 83.203125 -37.234375 L 83.203125 -23.953125 L 23.25 -23.953125 C 21.851562 -23.953125 20.644531 -23.441406 19.625 -22.421875 C 18.601562 -21.398438 18.09375 -20.132812 18.09375 -18.625 C 18.09375 -17.101562 18.601562 -15.832031 19.625 -14.8125 C 20.644531 -13.789062 21.851562 -13.28125 23.25 -13.28125 L 83.203125 -13.28125 L 83.203125 0 Z M 23.25 0 "/></g></g></g><g fill="#f58634" fill-opacity="1"><g transform="translate(684.794484, 143.267431)"><g><path d="M 23.25 0 C 19.289062 0 15.820312 -0.8125 12.84375 -2.4375 C 9.875 -4.070312 7.570312 -6.300781 5.9375 -9.125 C 4.3125 -11.957031 3.5 -15.125 3.5 -18.625 C 3.5 -22.175781 4.3125 -25.347656 5.9375 -28.140625 C 7.570312 -30.941406 9.875 -33.15625 12.84375 -34.78125 C 15.820312 -36.414062 19.289062 -37.234375 23.25 -37.234375 L 83.203125 -37.234375 L 83.203125 -23.953125 L 72.546875 -13.28125 L 83.203125 -13.28125 L 83.203125 0 Z M 18.09375 -18.625 C 18.09375 -17.101562 18.601562 -15.832031 19.625 -14.8125 C 20.644531 -13.789062 21.851562 -13.28125 23.25 -13.28125 L 51.828125 -13.28125 L 62.5 -23.953125 L 23.25 -23.953125 C 21.851562 -23.953125 20.644531 -23.441406 19.625 -22.421875 C 18.601562 -21.398438 18.09375 -20.132812 18.09375 -18.625 Z M 18.09375 -18.625 "/></g></g></g><g fill="#f58634" fill-opacity="1"><g transform="translate(771.486764, 143.267431)"><g><path d="M 3.5 0 L 3.5 -61.09375 L 18.09375 -61.09375 L 18.09375 -37.234375 L 63.453125 -37.234375 C 67.421875 -37.234375 70.890625 -36.414062 73.859375 -34.78125 C 76.828125 -33.15625 79.125 -30.941406 80.75 -28.140625 C 82.382812 -25.347656 83.203125 -22.175781 83.203125 -18.625 L 83.203125 0 L 68.609375 0 L 68.609375 -18.625 C 68.609375 -20.132812 68.097656 -21.398438 67.078125 -22.421875 C 66.054688 -23.441406 64.847656 -23.953125 63.453125 -23.953125 L 18.09375 -23.953125 L 18.09375 0 Z M 3.5 0 "/></g></g></g><g clip-path="url(#3d75e0dff7)"><path fill="#f58634" d="M 644.484375 179.90625 L 644.484375 226.210938 L 644.472656 226.210938 C 628.878906 226.210938 616.230469 213.566406 616.230469 197.976562 L 616.230469 151.652344 L 616.242188 151.652344 C 631.832031 151.652344 644.484375 164.316406 644.484375 179.90625 Z M 644.484375 179.90625 " fill-opacity="1" fill-rule="nonzero"/></g><g clip-path="url(#272261ad7c)"><path fill="#f58634" d="M 705.605469 259.25 L 665.019531 236.976562 C 655.335938 231.664062 650.136719 221.5 650.519531 211.167969 L 650.519531 198.371094 C 649.375 187.40625 654.75 176.316406 665.019531 170.679688 L 705.605469 148.40625 C 713.105469 162.074219 708.109375 179.234375 694.441406 186.734375 L 663.292969 203.832031 L 694.441406 220.925781 C 708.109375 228.425781 713.105469 245.585938 705.605469 259.25 Z M 705.605469 259.25 " fill-opacity="1" fill-rule="nonzero"/></g><g fill="#f58634" fill-opacity="1"><g transform="translate(713.179784, 259.825103)"><g><path d="M 23.25 0 C 19.289062 0 15.820312 -0.8125 12.84375 -2.4375 C 9.875 -4.070312 7.570312 -6.300781 5.9375 -9.125 C 4.3125 -11.957031 3.5 -15.125 3.5 -18.625 C 3.5 -22.175781 4.3125 -25.347656 5.9375 -28.140625 C 7.570312 -30.941406 9.875 -33.15625 12.84375 -34.78125 C 15.820312 -36.414062 19.289062 -37.234375 23.25 -37.234375 L 63.453125 -37.234375 C 67.421875 -37.234375 70.890625 -36.414062 73.859375 -34.78125 C 76.828125 -33.15625 79.125 -30.941406 80.75 -28.140625 C 82.382812 -25.347656 83.203125 -22.175781 83.203125 -18.625 C 83.203125 -15.125 82.382812 -11.957031 80.75 -9.125 C 79.125 -6.300781 76.828125 -4.070312 73.859375 -2.4375 C 70.890625 -0.8125 67.421875 0 63.453125 0 Z M 18.09375 -18.625 C 18.09375 -17.101562 18.601562 -15.832031 19.625 -14.8125 C 20.644531 -13.789062 21.851562 -13.28125 23.25 -13.28125 L 63.453125 -13.28125 C 64.847656 -13.28125 66.054688 -13.789062 67.078125 -14.8125 C 68.097656 -15.832031 68.609375 -17.101562 68.609375 -18.625 C 68.609375 -20.132812 68.097656 -21.398438 67.078125 -22.421875 C 66.054688 -23.441406 64.847656 -23.953125 63.453125 -23.953125 L 23.25 -23.953125 C 21.851562 -23.953125 20.644531 -23.441406 19.625 -22.421875 C 18.601562 -21.398438 18.09375 -20.132812 18.09375 -18.625 Z M 18.09375 -18.625 "/></g></g></g><g fill="#f58634" fill-opacity="1"><g transform="translate(799.872064, 259.825103)"><g><path d="M 23.25 0 C 19.289062 0 15.820312 -0.8125 12.84375 -2.4375 C 9.875 -4.070312 7.570312 -6.300781 5.9375 -9.125 C 4.3125 -11.957031 3.5 -15.125 3.5 -18.625 C 3.5 -22.175781 4.3125 -25.347656 5.9375 -28.140625 C 7.570312 -30.941406 9.875 -33.15625 12.84375 -34.78125 C 15.820312 -36.414062 19.289062 -37.234375 23.25 -37.234375 L 68.609375 -37.234375 L 68.609375 -61.1875 L 83.203125 -61.1875 L 83.203125 0 Z M 18.09375 -18.625 C 18.09375 -17.101562 18.601562 -15.832031 19.625 -14.8125 C 20.644531 -13.789062 21.851562 -13.28125 23.25 -13.28125 L 68.609375 -13.28125 L 68.609375 -23.953125 L 23.25 -23.953125 C 21.851562 -23.953125 20.644531 -23.441406 19.625 -22.421875 C 18.601562 -21.398438 18.09375 -20.132812 18.09375 -18.625 Z M 18.09375 -18.625 "/></g></g></g><g fill="#f58634" fill-opacity="1"><g transform="translate(886.564345, 259.825103)"><g><path d="M 3.5 0 L 3.5 -37.234375 L 18.1875 -37.234375 L 18.1875 0 Z M 3.5 -42.484375 L 3.5 -55.765625 L 17.75 -55.765625 L 17.75 -42.484375 Z M 3.5 -42.484375 "/></g></g></g><g fill="#f58634" fill-opacity="1"><g transform="translate(908.237448, 259.825103)"><g><path d="M 3.5 -18.625 C 3.5 -22.175781 4.3125 -25.347656 5.9375 -28.140625 C 7.570312 -30.941406 9.875 -33.15625 12.84375 -34.78125 C 15.820312 -36.414062 19.289062 -37.234375 23.25 -37.234375 L 63.453125 -37.234375 C 67.421875 -37.234375 70.890625 -36.414062 73.859375 -34.78125 C 76.828125 -33.15625 79.125 -30.941406 80.75 -28.140625 C 82.382812 -25.347656 83.203125 -22.175781 83.203125 -18.625 L 83.203125 0 L 68.609375 0 L 68.609375 -18.625 C 68.609375 -20.132812 68.097656 -21.398438 67.078125 -22.421875 C 66.054688 -23.441406 64.847656 -23.953125 63.453125 -23.953125 L 23.25 -23.953125 C 21.851562 -23.953125 20.644531 -23.441406 19.625 -22.421875 C 18.601562 -21.398438 18.09375 -20.132812 18.09375 -18.625 L 18.09375 0 L 3.5 0 Z M 3.5 -18.625 "/></g></g></g><g fill="#f58634" fill-opacity="1"><g transform="translate(994.929729, 259.825103)"><g><path d="M 3.5 23.953125 L 3.5 10.65625 L 63.453125 10.65625 C 64.847656 10.65625 66.054688 10.144531 67.078125 9.125 C 68.097656 8.113281 68.609375 6.847656 68.609375 5.328125 L 68.609375 0 L 23.25 0 C 19.289062 0 15.820312 -0.8125 12.84375 -2.4375 C 9.875 -4.070312 7.570312 -6.300781 5.9375 -9.125 C 4.3125 -11.957031 3.5 -15.125 3.5 -18.625 C 3.5 -22.175781 4.3125 -25.347656 5.9375 -28.140625 C 7.570312 -30.941406 9.875 -33.15625 12.84375 -34.78125 C 15.820312 -36.414062 19.289062 -37.234375 23.25 -37.234375 L 63.453125 -37.234375 C 67.421875 -37.234375 70.890625 -36.414062 73.859375 -34.78125 C 76.828125 -33.15625 79.125 -30.941406 80.75 -28.140625 C 82.382812 -25.347656 83.203125 -22.175781 83.203125 -18.625 L 83.203125 5.328125 C 83.203125 8.828125 82.382812 11.988281 80.75 14.8125 C 79.125 17.632812 76.828125 19.863281 73.859375 21.5 C 70.890625 23.132812 67.421875 23.953125 63.453125 23.953125 Z M 18.09375 -18.625 C 18.09375 -17.101562 18.601562 -15.832031 19.625 -14.8125 C 20.644531 -13.789062 21.851562 -13.28125 23.25 -13.28125 L 68.609375 -13.28125 L 68.609375 -18.625 C 68.609375 -20.132812 68.097656 -21.398438 67.078125 -22.421875 C 66.054688 -23.441406 64.847656 -23.953125 63.453125 -23.953125 L 23.25 -23.953125 C 21.851562 -23.953125 20.644531 -23.441406 19.625 -22.421875 C 18.601562 -21.398438 18.09375 -20.132812 18.09375 -18.625 Z M 18.09375 -18.625 "/></g></g></g><g clip-path="url(#56ea39a22c)"><path fill="#f58634" d="M 383.820312 286.605469 L 290.535156 235.410156 C 268.28125 223.195312 256.332031 199.84375 257.207031 176.089844 L 257.207031 146.679688 C 254.578125 121.484375 266.929688 95.992188 290.535156 83.042969 L 383.820312 31.851562 C 401.058594 63.257812 389.570312 102.699219 358.160156 119.941406 L 286.566406 159.230469 L 358.160156 198.519531 C 389.570312 215.757812 401.058594 255.195312 383.820312 286.605469 Z M 383.820312 286.605469 " fill-opacity="1" fill-rule="nonzero"/></g><g clip-path="url(#d448158c48)"><path fill="#f58634" d="M 129.65625 207.695312 L 52.160156 285.167969 C 51.910156 285.425781 51.851562 285.71875 51.988281 286.050781 C 52.125 286.382812 52.375 286.554688 52.734375 286.558594 C 92.574219 285.824219 127.90625 273.625 158.726562 249.96875 C 166.75 243.824219 176.878906 234.527344 189.109375 222.078125 C 206.949219 203.9375 225.25 185.605469 244.003906 167.082031 C 245.394531 165.691406 245.109375 164.988281 243.148438 164.976562 C 223.246094 164.8125 202.703125 164.839844 181.507812 165.058594 C 171.128906 165.167969 163.074219 164.050781 157.339844 161.707031 C 123.667969 147.996094 122.871094 102.375 156.195312 87.320312 C 160.976562 85.152344 167.675781 84.078125 176.296875 84.089844 C 199.085938 84.132812 222.492188 84.226562 246.519531 84.378906 C 255.179688 84.429688 262.488281 83.410156 268.441406 81.3125 C 289.136719 74.019531 302.539062 55.285156 303.273438 33.21875 C 303.277344 33.074219 303.253906 32.9375 303.203125 32.804688 C 303.148438 32.671875 303.074219 32.554688 302.976562 32.453125 C 302.878906 32.351562 302.765625 32.273438 302.636719 32.21875 C 302.507812 32.164062 302.371094 32.136719 302.234375 32.136719 C 259.832031 32.382812 220.578125 32.355469 184.46875 32.054688 C 168.507812 31.917969 156.398438 32.96875 148.144531 35.199219 C 98.804688 48.5 68.507812 100.375 83.214844 149.734375 C 90.625 174.617188 106.050781 193.515625 129.492188 206.429688 C 129.601562 206.492188 129.691406 206.574219 129.761719 206.679688 C 129.832031 206.78125 129.875 206.898438 129.890625 207.023438 C 129.90625 207.148438 129.894531 207.269531 129.851562 207.386719 C 129.8125 207.503906 129.746094 207.609375 129.65625 207.695312 Z M 129.65625 207.695312 " fill-opacity="1" fill-rule="nonzero"/></g></svg>